<svg xmlns="http://www.w3.org/2000/svg" viewBox="0 0 3844.06 3074.28"><defs><style>.cls-1{fill:#ccc;}.cls-1,.cls-5{stroke:#fbb03b;}.cls-1,.cls-10,.cls-11,.cls-2,.cls-21,.cls-3,.cls-4,.cls-5,.cls-6,.cls-7,.cls-8,.cls-9{stroke-miterlimit:10;}.cls-2{fill:#d2d2d2;}.cls-10,.cls-11,.cls-12,.cls-14,.cls-17,.cls-2,.cls-21,.cls-3,.cls-4,.cls-6,.cls-7,.cls-8,.cls-9{stroke:#000;}.cls-12,.cls-13,.cls-3{fill:#fff;}.cls-4{fill:#87b741;}.cls-5{fill:#fcee21;stroke-linecap:square;}.cls-11,.cls-14,.cls-17,.cls-6,.cls-9{fill:none;}.cls-7{fill:#f0d9ad;}.cls-18,.cls-8{fill:#b0b0b0;}.cls-10,.cls-9{stroke-width:0.5px;}.cls-11{stroke-width:0.25px;}.cls-12,.cls-14,.cls-17{stroke-linecap:round;stroke-linejoin:round;}.cls-12,.cls-14{stroke-width:0.24px;}.cls-15{isolation:isolate;font-size:1.12px;font-family:Calibri, Calibri;}.cls-16{letter-spacing:-0.01em;}.cls-17{stroke-width:1.2px;}.cls-19{font-size:5px;font-family:TimesNewRomanPSMT, Times New Roman;}.cls-20{letter-spacing:-0.06em;}.cls-21{fill:#dedede;}.cls-22{fill:#3f48b2;}</style></defs><title>Asset 1</title><g id="Layer_2" data-name="Layer 2"><g id="Layer_1-2" data-name="Layer 1"><polygon class="cls-1" points="1724.83 1834.01 1831.83 1811.01 1845.83 1877.01 1803.83 1886.01 1825.83 1987.01 1869.83 1977.01 1883.83 2040.01 1777.83 2064.01 1724.83 1834.01"/><rect class="cls-1" x="1971.34" y="1779.44" width="82.98" height="299.15" transform="translate(-370.53 482.58) rotate(-12.53)"/><polygon class="cls-1" points="2025.83 2196.01 2031.83 2228.01 2156.83 2163.01 2141.83 2133.01 2025.83 2196.01"/><polygon class="cls-1" points="2222.83 1839.01 2227.83 1881.01 2275.83 1869.01 2263.83 1833.01 2222.83 1839.01"/><polygon class="cls-2" points="3456.99 2675.51 3477.66 2697.51 3518.83 2658.34 3500.17 2634.98 3456.99 2675.51"/><polygon class="cls-2" points="3577.08 2654.01 3520.58 2705.76 3582.83 2776.51 3572.97 2787.06 3588.33 2801.51 3655.08 2745.26 3577.08 2654.01"/><polygon class="cls-2" points="3655.08 2745.26 3586.08 2804.98 3610.83 2835.76 3602.83 2843.26 3639.83 2887.76 3723.33 2819.26 3655.08 2745.26"/><polygon class="cls-2" points="3694.22 2843.14 3629.08 2897.76 3703.58 2983.26 3600.33 3072 3724.83 3071.84 3757.58 3044.01 3781.83 3071.84 3815.33 3071.84 3841.56 3048.51 3841.56 3014.14 3694.22 2843.14"/></g><g id="Layer_2-2" data-name="Layer 2"><polyline class="cls-2" points="3004.83 1355.77 3027.99 1337.35 3005.68 1310.8 2983.58 1330.01"/><polygon class="cls-2" points="768.2 2809.19 790.49 2924.68 753.38 2931.01 728.37 2817.2 768.2 2809.19"/><polygon class="cls-2" points="598.08 2935.66 576.33 2940.26 578.83 2953.01 591.33 2950.26 594.83 2966.26 608.33 2963.51 612.58 2986.26 624.33 2984.01 632.33 3024.26 597.83 3032.01 600.83 3045.26 635.58 3038.76 639.33 3054.51 604.58 3062.76 606.58 3071.84 678.33 3071.84 652.08 2936.76 598.08 2935.66"/><polygon class="cls-3" points="66.58 2896.42 89.83 3071.84 115.49 3071.84 92.83 2885.68 68.16 2885.68 66.58 2896.42"/><polygon class="cls-4" points="1454.33 2316.51 1738.42 2259.89 1567.33 1454.51 1291.16 1615.51 1454.33 2316.51"/><polygon class="cls-2" points="1571.15 475.3 1578.51 499.03 1641.33 490.51 1628.33 463.51 1571.15 475.3"/><polygon class="cls-2" points="1749.33 363.51 1610.33 425.51 1641.33 490.51 1779.33 428.51 1749.33 363.51"/><polygon class="cls-2" points="818.45 2758.26 854.33 2758.26 888.33 2918.51 848.33 2918.51 821.71 2798.44 818.45 2758.26"/><polygon class="cls-2" points="681.69 2756.64 818.45 2758.26 825.08 2797.76 699.45 2823.01 681.69 2756.64"/><polyline class="cls-5" points="1669.33 1595.51 1714.33 1786.51 1807.33 1769.51 1764.33 1573.51 1669.33 1595.51"/><path class="cls-6" d="M.83,45.55c27.94-12,56.54-24.78,70.88-30.92l1.12,5.06,38-18H.83Z"/><polyline class="cls-2" points="164.33 343.51 126.33 174.51 227.33 134.51 302.33 460.51 198.33 488.51 164.33 343.51"/><path class="cls-3" d="M391.33,1.51l-293,122,51,224,17.62,81.35,14.38,60.65s1,10-9,12c-3.1.62-4.24.9-8-1a13.23,13.23,0,0,1-6-7l-83-360L1.33,169V141.35l80-38L330.16,2Z"/><polygon class="cls-2" points="183.41 424.53 152.36 432.3 135.36 351.3 164.36 343.3 183.41 424.53"/><polygon class="cls-2" points="109.83 2.33 285.41 2.39 1.03 130.69 0.83 45.55 71.7 14.63 72.83 19.69 109.83 2.33"/><path class="cls-6" d="M284.33,1.51"/><polygon class="cls-2" points="342.33 101.51 497.33 36.51 515.33 42.51 535.33 114.51 507.33 123.51 504.33 110.51 435.33 126.51 435.33 150.51 360.33 168.51 342.33 101.51"/><polyline class="cls-2" points="418.02 69.77 435.33 126.51 438.33 198.51 488.33 405.51 570.33 387.51 504.33 110.51 435.33 126.51"/><polygon class="cls-2" points="1013.22 2449.68 1055.12 2442.53 1051.21 2427.68 1012.22 2438.68 1013.22 2449.68"/><polygon class="cls-2" points="978.33 2456.68 960.33 2461.68 923.33 2468.68 844.33 2468.68 845.33 2448.68 877.33 2449.68 880.33 2438.68 933.33 2438.68 938.33 2446.68 977.33 2440.68 978.33 2456.68"/><polygon class="cls-2" points="982.33 2478.71 978.33 2456.71 1055.33 2442.71 1056.33 2446.71 1059.33 2462.71 982.33 2478.71"/><polygon class="cls-2" points="831.66 1975.01 799.66 1980.01 804.66 2008.01 837.66 2003.01 831.66 1975.01"/><path class="cls-6" d="M539.24,1615.94"/><path class="cls-6" d="M2234.33,897.51c-235.91,202.77-452.78,393.17-618,550l236,1110,378-54,183-47,44-25,633-525-745-850Z"/><polygon class="cls-2" points="1735.33 2527.51 1731.33 2508.51 1696.33 2516.51 1702.33 2536.51 1735.33 2527.51"/><path class="cls-6" d="M1430.33,632.51l212-85,14,55h0c-5.61,1.68-6.36,8.3-5,14,4.81,20.21,95.25,409.32,148,631l-189,173-90-391v-10Z"/><path class="cls-6" d="M1297.33,1460.51"/><path class="cls-6" d="M2238.33,861.51l-420,367L1674.24,609a13.53,13.53,0,0,0-2.81-5.69c-2.22-2.62-4.29-3.6-8.1-2.84h0l-14-56,374-157Z"/><polygon class="cls-2" points="1912.75 2.66 1993.33 1.51 2016.33 63.51 2028.33 58.51 2035.33 74.51 2025.33 79.51 2037.33 111.51 2039.33 109.51 2062.33 164.51 2005.75 213.66 1912.75 2.66"/><polygon class="cls-2" points="2100.97 56.64 2139.33 100.51 2163.33 81.51 2124.33 36.51 2100.97 56.64"/><polygon class="cls-6" points="2109.79 21.06 2132.33 2.51 2092.33 2.51 2109.79 21.06"/><polygon class="cls-2" points="2132.33 2.51 2167.33 2.51 2124.33 36.51 2110.04 21.33 2132.33 2.51"/><polygon class="cls-2" points="2197.33 2.51 2217.33 24.51 2243.33 2.51 2197.33 2.51"/><line class="cls-6" x1="2124.33" y1="266.51" x2="2173.33" y2="224.51"/><polygon class="cls-2" points="663.33 166.51 624.33 1.51 872.33 2.51 874.33 9.51 853.33 16.51 850.33 7.51 704.33 40.51 713.33 81.51 728.33 78.51 745.33 146.51 663.33 166.51"/><polygon class="cls-2" points="900.33 139.51 807.33 163.51 820.33 222.51 834.33 219.51 857.33 315.51 839.33 320.51 853.33 379.51 951.33 357.51 900.33 139.51"/><polygon class="cls-2" points="575.33 390.51 489.33 411.51 523.33 555.51 541.33 551.51 549.33 585.51 618.33 568.51 575.33 390.51"/><polyline class="cls-2" points="14.41 571.86 135.33 540.51 140.33 557.51 124.33 562.51 127.33 575.51 51.33 596.51 49.33 588.51 20.33 596.51 14.41 571.86"/><polygon class="cls-2" points="181.33 559.51 143.33 567.51 156.33 621.51 54.33 643.51 70.33 712.51 171.33 692.51 196.33 794.51 233.33 786.51 206.33 667.51 179.33 672.51 172.33 636.51 197.33 632.51 181.33 559.51"/><polyline class="cls-2" points="1.33 823.9 15.14 878.27 81.33 854.9 14.41 572.25 0.83 575.34 1.33 823.9"/><polygon class="cls-2" points="220.33 838.51 174.33 857.51 185.33 887.51 254.33 856.51 238.33 810.51 216.33 819.51 220.33 838.51"/><polygon class="cls-2" points="154.33 867.51 84.33 897.51 96.33 926.51 167.33 895.51 154.33 867.51"/><polygon class="cls-2" points="236.33 679.51 258.44 770.98 364.33 746.51 368.33 765.51 439.33 748.51 439.33 697.51 518.33 676.51 524.33 698.51 606.33 679.51 585.33 587.51 500.33 609.51 503.33 621.51 479.33 627.51 472.33 594.51 441.33 602.51 439.33 595.51 416.33 601.51 428.33 652.51 347.33 674.51 349.33 683.51 325.33 691.51 318.33 658.51 236.33 679.51"/><polygon class="cls-2" points="1396.33 2.51 1434.33 163.51 1485.33 151.51 1483.33 137.51 1501.33 132.51 1470.33 2.51 1396.33 2.51"/><polygon class="cls-2" points="1434.33 163.51 1441.33 188.51 1492.33 175.51 1485.33 151.51 1434.33 163.51"/><path class="cls-6" d="M1413.33,213.51"/><polygon class="cls-2" points="1441.33 188.51 1513.33 488.51 1523.33 490.51 1628.33 463.51 1610.33 425.51 1597.33 432.51 1581.33 363.51 1554.33 368.51 1532.33 271.51 1559.33 264.51 1544.33 203.51 1557.33 203.51 1549.33 162.51 1441.33 188.51"/><polygon class="cls-2" points="1523.33 490.51 1528.33 509.28 1580.33 498.28 1577.39 476.67 1523.33 490.51"/><path class="cls-6" d="M1779.33,428.51"/><polyline class="cls-2" points="1778.63 427.01 1873.33 386.51 1844.33 323.51 1749.33 363.51"/><polygon class="cls-2" points="732.33 449.51 802.33 433.51 828.33 542.51 983.33 507.51 1000.33 576.51 775.33 629.51 732.33 449.51"/><polygon class="cls-2" points="1.33 1099.51 210.33 1001.51 193.33 965.51 1.33 1053.51 1.33 1099.51"/><polygon class="cls-2" points="61.33 1095.51 70.33 1133.51 150.33 1114.51 141.33 1077.51 61.33 1095.51"/><polygon class="cls-2" points="150.33 1114.51 166.33 1187.51 179.33 1184.51 184.33 1212.51 142.33 1221.51 142.33 1235.51 99.33 1244.51 73.86 1132.67 150.33 1114.51"/><polygon class="cls-2" points="166.33 1187.51 304.33 1155.51 282.33 1057.51 144.12 1089 166.33 1187.51"/><line class="cls-6" x1="1.33" y1="1099.51" x2="1.33" y2="2160.51"/><polygon class="cls-2" points="80.47 1340.85 72.33 1303.51 126.33 1291.51 142.33 1291.51 142.33 1287.51 205.33 1273.51 209.33 1292.51 213.33 1291.51 216.33 1307.51 80.47 1340.85"/><polyline class="cls-2" points="226.33 1354.52 216.33 1307.52 307.33 1287.52 317.33 1334.52 226.33 1354.52"/><polygon class="cls-2" points="357.33 961.51 392.33 1119.51 467.33 1103.51 431.33 945.51 357.33 961.51"/><polygon class="cls-2" points="383.33 868.51 409.33 927.51 759.33 785.51 733.33 720.51 383.33 868.51"/><polygon class="cls-2" points="733.33 720.51 788.33 716.51 799.33 759.51 759.33 777.51 733.33 720.51"/><polygon class="cls-2" points="788.33 716.51 832.33 716.51 904.33 732.51 964.33 754.51 968.33 766.51 832.33 805.51 818.33 755.51 799.33 759.51 788.33 716.51"/><polygon class="cls-2" points="692.33 843.51 713.33 924.51 994.33 844.51 971.33 765.51 692.33 843.51"/><polygon class="cls-2" points="812.33 949.51 823.33 994.51 879.33 980.51 867.33 934.51 812.33 949.51"/><polygon class="cls-2" points="923.33 889.51 932.33 927.51 1002.33 911.51 994.33 871.51 923.33 889.51"/><polygon class="cls-2" points="216.33 1220.51 230.33 1273.51 327.33 1253.51 325.33 1243.51 375.33 1232.51 367.33 1198.51 323.33 1198.51 216.33 1220.51"/><polygon class="cls-2" points="295.62 1339.28 346.33 1575.51 278.33 1591.51 226.33 1354.51 295.62 1339.28"/><polygon class="cls-2" points="278.33 1591.51 315.33 1761.51 350.33 1752.51 342.33 1716.51 376.33 1708.51 348.33 1575.51 278.33 1591.51"/><polygon class="cls-2" points="379.33 1674.51 386.33 1702.51 445.33 1688.51 438.33 1659.51 379.33 1674.51"/><path class="cls-2" d="M13.33,1442.51l13,60,12-3,43,186-9,3,6,28,8,1,27,116,108-23-13-57-40,7-12-58,29-4-5-25s32-8,36-41h34l-9-41-31,13s-14-29-50-20l-6-29-30,5-13-56,37-9-16-79Z"/><polygon class="cls-2" points="101.33 1841.51 116.33 1908.51 266.33 1875.51 250.33 1807.51 101.33 1841.51"/><polygon class="cls-2" points="325.33 1243.51 334.33 1290.51 322.33 1294.51 378.33 1545.51 501.33 1520.51 450.33 1290.51 440.33 1292.51 425.33 1220.51 325.33 1243.51"/><polygon class="cls-2" points="492.68 1522.27 511.33 1591.51 410.33 1612.51 393.44 1542.44 492.68 1522.27"/><polygon class="cls-2" points="271.33 1794.51 288.33 1874.51 338.33 1866.51 320.33 1783.51 271.33 1794.51"/><polygon class="cls-2" points="297.33 1912.51 288.33 1874.51 338.33 1866.51 368.33 2008.51 318.33 2016.51 299.33 1931.51 290.33 1931.51 287.33 1915.51 297.33 1912.51"/><path class="cls-3" d="M1.33,1996.89s282.86-48.8,290-47.37c5,1,3.37,3.87,2,5.15a3.89,3.89,0,0,1-2.07,1l-290,47.83Z"/><polygon class="cls-2" points="139.33 2003.51 150.33 2080.51 397.33 2049.51 386.33 1967.51 139.33 2003.51"/><polygon class="cls-2" points="334.12 1756.68 386.33 1967.51 398.33 2053.51 505.33 2042.51 425.33 1730.51 334.12 1756.68"/><polygon class="cls-2" points="542.33 1861.51 550.33 1894.51 539.33 1897.51 560.33 1991.51 817.33 1939.51 797.33 1842.51 781.33 1847.51 755.33 1722.51 718.33 1729.51 709.33 1689.51 678.33 1697.51 687.33 1742.51 653.33 1751.51 672.33 1846.51 710.33 1840.51 714.33 1860.51 605.33 1882.51 598.33 1849.51 542.33 1861.51"/><polygon class="cls-2" points="399.33 1174.51 409.33 1215.51 505.33 1196.51 526.33 1291.51 541.33 1292.51 615.33 1622.51 520.33 1642.51 538.33 1722.51 771.33 1671.51 752.33 1588.51 730.33 1593.51 715.33 1539.51 714.33 1457.51 676.33 1291.51 662.33 1292.51 641.33 1197.51 648.33 1198.51 633.33 1126.51 441.33 1170.51 439.33 1164.51 399.33 1174.51"/><polygon class="cls-7" points="31.33 2235.51 41.33 2317.51 197.33 2298.51 186.33 2215.51 31.33 2235.51"/><polygon class="cls-2" points="173.33 2322.51 177.33 2350.51 205.33 2346.51 200.33 2317.51 173.33 2322.51"/><path class="cls-2" d="M186.49,2216.77l28.83-5.26,2,13,15,1,34-7h17l20-5h16l-3-16,34-4,15,76-12,3,5,24,13-2,40,200-177,22-14-80,117-14,1,7,32-4-6-24-34,5-10-45,21-4-10-53-37,5s0,17-30,5l-43,5-19.87,4.56Z"/><polygon class="cls-2" points="177.33 2350.51 150.33 2356.51 176.33 2494.51 228.86 2485.28 205.33 2346.51 177.33 2350.51"/><polygon class="cls-2" points="1.33 2279.51 14.33 2354.51 34.16 2351.57 13.33 2235.51 1.33 2237.51 1.33 2279.51"/><polygon class="cls-2" points="14.33 2354.51 25.33 2414.51 52.33 2409.51 41.33 2350.51 14.33 2354.51"/><line class="cls-6" x1="1.33" y1="2183.51" x2="1.33" y2="2237.51"/><polyline class="cls-2" points="1.33 2280.51 1.33 2397.51 21.36 2392.9 42.33 2519.51 16.33 2524.51 1.33 2446.51 1.33 2397.01"/><polygon class="cls-2" points="41.99 2517.49 48.33 2554.51 69.33 2551.51 67.33 2537.51 85.33 2534.51 64.33 2413.51 51.33 2415.51 50.16 2409.91 25.33 2414.51 41.99 2517.49"/><polygon class="cls-2" points="1.33 2539.51 34.33 2535.51 40.33 2586.51 1.33 2592.51 1.33 2539.51"/><line class="cls-6" x1="1.33" y1="2447.01" x2="1.33" y2="2539.51"/><polygon class="cls-2" points="684.33 1107.51 704.33 1199.51 1146.33 1106.51 1125.33 1010.51 684.33 1107.51"/><polygon class="cls-2" points="728.47 1128.74 732.47 1155.74 1104.33 1080.51 1099.33 1051.51 931.33 1087.51 926.33 1061.51 896.33 1068.51 901.33 1093.51 728.47 1128.74"/><polygon class="cls-2" points="824.33 1621.51 880.33 1859.51 1161.33 1803.51 1152.33 1760.51 1080.33 1775.51 1058.33 1683.51 1130.33 1668.51 1107.33 1558.51 824.33 1621.51"/><path class="cls-2" d="M1104.33,1470.51l14-3-4-19s-15-2-20-15c0,0,54,34,89-16,0,0,3,7-7,20l3,17,34-8,10,39v215l20,91-61,14Z"/><polygon class="cls-2" points="1271.33 1842.51 1225.33 1883.51 1170.33 1903.51 1141.33 1820.51 1256.33 1800.51 1271.33 1842.51"/><polygon class="cls-2" points="379.33 2242.51 399.33 2343.51 433.33 2335.51 433.33 2327.51 457.33 2321.51 459.33 2330.51 485.33 2325.51 485.33 2316.51 515.33 2310.51 499.33 2219.51 379.33 2242.51"/><polygon class="cls-2" points="498.33 2180.51 513.33 2246.51 746.33 2215.51 734.33 2152.51 498.33 2180.51"/><polygon class="cls-2" points="734.33 2152.51 773.33 2147.51 787.33 2225.51 750.33 2234.51 734.33 2152.51"/><polygon class="cls-2" points="691.33 2244.51 697.33 2278.51 717.33 2274.51 721.33 2299.51 703.33 2303.51 707.33 2319.51 729.33 2317.51 734.33 2346.51 698.33 2352.51 703.33 2373.51 772.33 2360.51 748.33 2234.51 691.33 2244.51"/><polygon class="cls-2" points="748.33 2234.51 793.33 2226.51 813.33 2318.51 766.32 2328.97 748.33 2234.51"/><polygon class="cls-2" points="809.47 2300.78 826.33 2296.51 821.33 2267.51 928.33 2250.51 930.33 2260.51 943.33 2259.51 950.33 2296.51 813.33 2318.51 809.47 2300.78"/><polygon class="cls-2" points="530.33 2332.51 542.33 2397.51 594.33 2388.51 584.33 2322.51 530.33 2332.51"/><polygon class="cls-2" points="1.33 2592.51 72.33 2582.51 77.33 2627.51 1.33 2635.51 1.33 2592.51"/><polygon class="cls-2" points="48.33 2554.51 54.87 2584.97 198.33 2563.51 195.33 2535.51 48.33 2554.51"/><polygon class="cls-2" points="77.33 2627.51 81.33 2650.51 148.33 2644.51 143.33 2607.51 198.33 2602.51 204.33 2633.51 254.33 2629.51 246.33 2558.51 198.33 2563.51 72.33 2582.51 77.33 2627.51"/><polygon class="cls-2" points="37.5 2631.7 42.33 2658.51 24.33 2660.51 27.33 2676.51 46.33 2672.51 51.33 2709.51 22.33 2714.51 25.33 2735.51 54.33 2728.51 61.33 2761.51 43.33 2765.51 48.33 2787.51 68.33 2783.51 70.33 2788.51 108.33 2781.51 81.33 2650.51 77.33 2627.51 37.5 2631.7"/><polygon class="cls-2" points="1.33 2797.51 35.33 2790.51 39.33 2830.51 1.33 2834.51 1.33 2797.51"/><line class="cls-6" x1="1.33" y1="2635.51" x2="1.33" y2="2797.51"/><polyline class="cls-2" points="92.13 2702.95 445.33 2666.51 459.33 2735.51 436.33 2738.51 440.33 2763.51 390.33 2771.51 386.33 2743.51 350.33 2747.51 353.33 2778.51 301.33 2783.51 297.33 2752.51 264.33 2756.51 266.33 2783.51 212.33 2792.51 210.33 2763.51 174.33 2766.51 178.33 2795.51 126.33 2799.51 121.33 2772.51 106.74 2773.83"/><path class="cls-6" d="M115.26,2819.06"/><polygon class="cls-2" points="324.3 2933.38 318.33 2903.51 312.33 2906.51 309.33 2882.51 333.33 2880.51 329.33 2856.51 337.33 2854.51 337.33 2847.51 373.33 2841.51 375.33 2853.51 383.33 2851.51 381.33 2839.51 404.33 2836.51 407.33 2848.51 419.33 2845.51 416.33 2829.51 452.33 2823.51 465.16 2915.68 459.91 2916.68 461.33 2926.59 450.74 2929.01 445.33 2899.51 428.33 2901.51 431.33 2918.51 401.13 2923.34 399.58 2906.76 384.33 2909.51 386.83 2928.18 363.16 2932.68 362.16 2921.01 347.74 2924.34 349.05 2930.08 324.3 2933.38"/><polygon class="cls-2" points="456.85 2857.75 495.51 2853.17 501.19 2879.19 525.63 2874.05 532.99 2914.34 512.33 2918.84 513.58 2926.59 469.91 2933.38 466.33 2918.51 456.85 2857.75"/><polygon class="cls-2" points="417.33 2523.51 355.33 2535.51 381.33 2653.51 441.33 2647.51 429.33 2588.51 416.33 2592.51 411.33 2579.51 426.33 2575.51 417.33 2523.51"/><polygon class="cls-2" points="454.44 2839.35 627.33 2821.51 616.33 2764.51 448.33 2784.51 454.44 2839.35"/><polygon class="cls-2" points="575.33 2882.51 573.17 2866.26 592.17 2861.26 588.03 2841.05 630.03 2833.05 637.33 2868.51 575.33 2882.51"/><polygon class="cls-2" points="556.33 2422.51 562.33 2451.51 658.33 2430.51 649.33 2392.51 630.33 2397.51 632.33 2404.51 556.33 2422.51"/><polygon class="cls-2" points="549.33 2457.51 590.35 2445.38 597.33 2475.51 556.33 2485.51 549.33 2457.51"/><polyline class="cls-2" points="556.33 2485.51 571.33 2550.51 597.33 2546.51 592.33 2516.51 607.33 2513.51 597.33 2475.51"/><polygon class="cls-2" points="603.33 2445.51 614.33 2487.51 679.33 2473.51 669.33 2428.51 603.33 2445.51"/><polyline class="cls-2" points="715.33 2420.51 782.33 2404.51 789.33 2438.51 741.33 2450.51 747.33 2475.51 728.33 2480.51 727.33 2475.51"/><polygon class="cls-2" points="732.93 2416.31 728.33 2397.51 720.33 2389.51 703.33 2390.51 701.33 2384.51 679.33 2389.51 690.04 2424.99 732.93 2416.31"/><polygon class="cls-2" points="882.33 1967.51 885.33 1997.51 974.33 1987.51 971.33 1957.51 882.33 1967.51"/><polygon class="cls-2" points="794.33 2142.51 798.33 2186.51 874.33 2180.51 874.33 2167.51 893.33 2166.51 888.33 2132.51 794.33 2142.51"/><polyline class="cls-2" points="782.33 2404.51 772.33 2360.51 737.25 2367.12 748.35 2412.63 782.33 2404.32"/><polyline class="cls-2" points="810.2 2417.21 823.78 2471.61 799.33 2475.32 785.91 2421.74 820.33 2415.32 816.33 2398.32 782.33 2404.32 785.91 2421.74"/><polygon class="cls-7" points="570.33 2551.51 587.33 2639.51 862.33 2587.51 844.33 2497.51 570.33 2551.51"/><polygon class="cls-2" points="582.33 2613.51 556.33 2617.51 566.33 2663.51 591.33 2657.51 582.33 2613.51"/><polygon class="cls-2" points="616.81 2633.94 626.33 2677.51 615.33 2679.51 618.33 2693.51 601.33 2697.51 591.33 2657.51 587.33 2639.51 616.81 2633.94"/><polygon class="cls-2" points="818.33 2614.51 797.33 2618.51 807.33 2663.51 828.33 2657.51 818.33 2614.51"/><polyline class="cls-2" points="862.33 2587.51 887.33 2581.51 879.33 2537.51 853.53 2543.54 862.33 2587.51"/><polygon class="cls-2" points="814.93 2596.47 820.13 2622.25 848.33 2618.51 900.33 2901.51 953.33 2891.51 898.33 2580.51 814.93 2596.47"/><polyline class="cls-2" points="898.33 2580.51 1079.33 2547.51 1157.58 2895.18 1086.16 2909.16 1038.33 2685.51 1035.33 2685.51 1020.33 2621.51 1024.33 2621.51 1017.33 2589.51 993.33 2591.51 996.33 2622.51 926.33 2630.51 918.33 2606.51 903.23 2608.24"/><line class="cls-2" x1="1046.05" y1="2721.63" x2="1115.19" y2="2706.86"/><path class="cls-6" d="M1157.57,2895.18"/><path class="cls-6" d="M1086.16,2909.15"/><polygon class="cls-2" points="944.31 2915.76 1045.75 2893.07 1051.06 2919.8 1085.31 2911.3 1086.16 2909.16 1155.86 2895.51 1195.95 3070.26 1178.7 3072.18 1041.2 3072.18 1015.08 2958.64 899.2 2983.89 896.58 2972.64 858.08 2981.14 851.28 2949.04 891.91 2942.41 892.83 2947.21 933.83 2939.34 928.97 2919.64 944.31 2915.76"/><polygon class="cls-2" points="1042.69 2893.16 1037.83 2872.68 993.83 2882.68 999.4 2903.01 1042.69 2893.16"/><polygon class="cls-2" points="626.33 2701.51 633.33 2754.51 845.33 2729.51 836.33 2671.51 626.33 2701.51"/><polygon class="cls-2" points="815.33 2398.51 906.33 2381.51 893.38 2305.66 813.33 2318.51 766.32 2328.97 772.33 2360.51 782.33 2404.32 815.33 2398.51"/><polygon class="cls-2" points="938.29 2298.44 947.33 2342.51 987.33 2334.51 994.33 2360.51 978.33 2365.51 991.33 2422.51 1048.33 2409.51 1019.33 2284.51 938.29 2298.44"/><polygon class="cls-2" points="978.33 2365.51 944.33 2372.51 951.33 2401.51 965.33 2398.51 972.33 2428.51 990.33 2423.51 978.33 2365.51"/><polygon class="cls-7" points="922.33 2127.51 938.33 2197.51 922.33 2198.51 928.33 2225.51 942.33 2220.51 958.38 2294.99 1019.33 2284.51 981.33 2120.51 922.33 2127.51"/><path class="cls-6" d="M2827.33,2352.51l5-4-18-22,87-75-48-54-326,289,42,49,69-60,91.42,104-9,7.83,5,5.63s-18.47,19.34-18.47,22.58l-1,21,6,19,10,9,13,8,28,2s21.78-11.06,23.4-13.51l4.37,5.31,9.22-6.8,86,101-66,55,46,54,287-237v-8l40-32-44-56-84,72-19-20-125,106-64-76,26-22-7-9,71-56,63,72,25-25,8,11,3-2,11,11,18-15-34-41-5,4-119-125L2809,2508.34l-4.53-5.33-24.87,22.53-67.26-71,115-102,30,35-3,3,15,18,3-2,24,29,27-21-27-31,3-2-59-67-21,19"/><path class="cls-6" d="M2830.06,2358.23"/><polyline class="cls-6" points="2981.54 2488.97 2990.33 2481.51 3014.33 2508.51 3006.49 2515.17"/><polygon class="cls-7" points="1107.33 537.51 1123.33 605.51 1239.33 577.51 1224.33 508.51 1107.33 537.51"/><polygon class="cls-2" points="1167.33 603.51 1110.33 618.51 1126.33 688.51 1163.33 678.51 1154.33 645.51 1178.33 641.51 1167.33 603.51"/><polygon class="cls-2" points="1187.33 642.51 1190.33 664.51 1229.33 655.51 1224.33 633.51 1187.33 642.51"/><polygon class="cls-2" points="1174.33 595.51 1182.33 626.51 1246.33 610.51 1253.33 633.51 1302.33 621.51 1292.33 582.51 1273.33 587.51 1270.33 571.51 1174.33 595.51"/><polygon class="cls-2" points="1193.33 748.51 1222.33 818.51 1329.33 776.51 1301.33 707.51 1193.33 748.51"/><polygon class="cls-2" points="1156.23 825.05 1181.96 819.57 1177.96 805.57 1166.96 786.57 1147.99 791.01 1156.23 825.05"/><polygon class="cls-2" points="1193.58 979.01 1225.58 971.01 1193.58 820.01 1156.8 827.38 1193.58 979.01"/><polygon class="cls-2" points="1226.48 1115.15 1255.33 1107.51 1228.33 998.51 1199.66 1004.41 1226.48 1115.15"/><polygon class="cls-2" points="1239.97 1170.89 1298.33 1158.51 1306.33 1181.51 1354.33 1169.51 1329.33 1071.51 1309.33 1076.51 1285.33 975.51 1368.33 954.51 1366.33 947.51 1389.33 942.51 1394.33 964.51 1380.33 968.51 1394.33 1031.51 1387.33 1033.51 1415.33 1154.51 1424.33 1153.51 1442.33 1228.51 1432.33 1230.51 1464.33 1354.51 1399.33 1371.51 1368.33 1251.51 1324.33 1261.51 1328.33 1279.51 1270.29 1296.09 1239.97 1170.89"/><polygon class="cls-2" points="1384.4 1314.24 1363.33 1319.51 1353.33 1281.51 1374.29 1274.77 1384.4 1314.24"/><polygon class="cls-2" points="1360.33 1358.51 1330.33 1364.51 1335.33 1386.51 1366.33 1379.51 1360.33 1358.51"/><polygon class="cls-2" points="1301.71 1425.86 1316.33 1421.51 1314.33 1412.51 1317.33 1411.51 1307.33 1373.51 1290.04 1377.66 1301.71 1425.86 1324.33 1420.51 1332.33 1449.51 1309.2 1456.78 1301.71 1425.86"/><polygon class="cls-2" points="1346.33 1457.51 1378.33 1451.51 1386.33 1482.51 1355.33 1490.51 1346.33 1457.51"/><polygon class="cls-7" points="1387.33 1462.51 1392.33 1481.51 1434.33 1469.51 1430.33 1455.51 1411.33 1459.51 1410.33 1455.51 1387.33 1462.51"/><polygon class="cls-7" points="1453.33 1439.51 1460.33 1462.51 1512.33 1448.51 1501.33 1412.51 1504.33 1411.51 1502.33 1402.51 1487.33 1408.51 1488.33 1411.51 1484.33 1412.51 1490.33 1429.51 1453.33 1439.51"/><polygon class="cls-2" points="1482.33 1419.51 1480.33 1411.51 1483.33 1411.51 1470.33 1357.51 1461.33 1356.51 1331.33 1388.51 1336.33 1411.51 1333.33 1412.51 1343.33 1452.51 1482.33 1419.51"/><polygon class="cls-2" points="1246.33 830.51 1334.33 810.51 1368.33 954.51 1281.33 976.51 1246.33 830.51"/><polygon class="cls-2" points="1367.33 1679.51 1400.33 1816.51 1440.33 1805.51 1445.33 1821.51 1470.33 1818.51 1464.33 1732.51 1453.33 1657.51 1438.33 1615.51 1386.33 1645.51 1394.33 1673.51 1367.33 1679.51"/><polygon class="cls-2" points="1100.33 2104.51 1145.33 2088.51 1167.33 2117.51 1205.33 2276.51 1143.33 2284.51 1100.33 2104.51"/><polygon class="cls-2" points="1143.33 2284.51 1147.33 2301.51 1177.33 2298.51 1181.33 2330.51 1193.33 2330.51 1192.33 2314.51 1211.33 2309.51 1211.33 2299.51 1225.33 2297.51 1223.33 2274.51 1143.33 2284.51"/><polygon class="cls-2" points="1216.33 2239.51 1268.33 2228.51 1276.33 2262.51 1224.33 2274.51 1216.33 2239.51"/><path class="cls-7" d="M1145.33,2088.51s111.43-78.19,131-106l16-18,12-5,14,5,5,11,19,97-76,17-1-7-25,19,4,6s-3,12-16,13l-5-7-35,28-21.14-24.39"/><polygon class="cls-2" points="1285.33 2148.51 1353.33 2130.51 1378.33 2242.51 1309.33 2255.51 1285.33 2148.51"/><polygon class="cls-2" points="1223.33 2274.51 1230.33 2310.51 1254.33 2305.51 1252.33 2298.51 1298.33 2288.51 1313.33 2354.51 1321.33 2354.51 1342.33 2435.51 1418.33 2420.51 1378.33 2242.51 1223.33 2274.51"/><polygon class="cls-2" points="1159.33 2356.51 1162.33 2371.51 1223.33 2359.51 1215.33 2346.51 1159.33 2356.51"/><polygon class="cls-2" points="1162.33 2371.51 1172.33 2411.51 1230.33 2400.51 1222.08 2359.76 1162.33 2371.51"/><polygon class="cls-2" points="1223.33 2424.51 1227.33 2451.51 1331.33 2437.51 1326.33 2411.51 1223.33 2424.51"/><polygon class="cls-7" points="1184.33 2460.51 1262.33 2448.51 1274.33 2499.51 1312.33 2490.51 1324.33 2549.51 1288.33 2556.51 1302.33 2626.51 1226.33 2636.51 1184.33 2460.51"/><polygon class="cls-2" points="1318.33 2625.51 1320.33 2645.51 1348.33 2641.51 1346.33 2622.51 1318.33 2625.51"/><polygon class="cls-2" points="1316.33 2625.51 1318.33 2645.51 1298.33 2651.51 1314.33 2718.51 1245.33 2726.51 1225.33 2636.51 1316.33 2625.51"/><polygon class="cls-2" points="1246.04 2727.71 1266.33 2821.51 1331.33 2815.51 1401.33 2803.51 1396.33 2775.51 1300.33 2789.51 1293.33 2754.51 1396.33 2740.51 1395.04 2708.71 1246.04 2727.71"/><line class="cls-2" x1="1321.93" y1="2718.03" x2="1325.7" y2="2750.11"/><line class="cls-2" x1="1300.33" y1="2789.51" x2="1306.67" y2="2817.79"/><polygon class="cls-2" points="1288.9 2918.51 1266.33 2821.51 1330.54 2815.61 1343.57 2866.51 1329.57 2871.51 1338.57 2913.51 1313.73 2918.51 1288.9 2918.51"/><polygon class="cls-2" points="1401.33 2803.51 1502.33 2789.51 1528.33 2904.51 1458.33 2915.51 1441.33 2854.51 1343.33 2867.51 1331.33 2815.51 1401.33 2803.51"/><polygon class="cls-2" points="1532.33 2918.51 1528.33 2905.51 1447.33 2918.51 1397.2 2926.64 1405.58 2980.01 1540.33 2959.26 1532.33 2918.51"/><polygon class="cls-2" points="1395.33 2708.51 1481.33 2698.51 1495.33 2761.51 1410.33 2773.51 1395.33 2708.51"/><polyline class="cls-2" points="1481.33 2698.51 1466.33 2630.51 1377.33 2642.51 1383.33 2674.51 1390.33 2674.51 1395.33 2691.51 1419.33 2688.51 1421.13 2705.51"/><polygon class="cls-2" points="1413.33 2576.51 1418.33 2609.51 1458.33 2603.51 1453.33 2570.51 1413.33 2576.51"/><polygon class="cls-2" points="1342.33 2526.51 1349.33 2557.51 1444.33 2536.51 1418.33 2421.51 1289.33 2445.51 1292.33 2464.51 1302.33 2463.51 1307.33 2485.51 1337.33 2478.51 1342.33 2494.51 1355.33 2492.51 1361.33 2520.51 1342.33 2526.51"/><polyline class="cls-2" points="1583.33 2749.51 1649.33 2735.51 1680.33 2866.51 1614.83 2882.63"/><polygon class="cls-2" points="1595.84 2616.06 1731.84 2595.06 1725.84 2564.06 1652.84 2576.06 1648.84 2552.06 1628.84 2534.06 1579.84 2543.06 1595.84 2616.06"/><polygon class="cls-2" points="1621.33 2619.51 1626.97 2649.84 1567.33 2659.51 1551.59 2586.71 1587.87 2579.7 1595.84 2616.06 1619.6 2612.39 1621.33 2619.51"/><path class="cls-2" d="M1601.33,2264.51l-3,46,90,3-8-46-37,5s-13-23-24-15C1619.33,2257.51,1613.33,2253.51,1601.33,2264.51Z"/><polygon class="cls-2" points="1508.18 2412.96 1629.18 2385.96 1620.18 2343.96 1567.18 2353.96 1570.18 2366.96 1500.18 2381.96 1508.18 2412.96"/><polygon class="cls-2" points="1850.83 3071.24 1834.83 3005.68 1841.83 3003.34 1831.49 2959.34 1823.83 2958.68 1815.33 2918.51 1805.33 2874.51 1817.33 2872.51 1811.33 2839.51 1714.33 2863.51 1721.33 2893.51 1732.33 2891.51 1738.45 2918.51 1752.16 2982.68 1741.49 2984.01 1749.49 3018.01 1760.83 3015.68 1773.16 3072.07 1850.83 3071.24"/><polygon class="cls-7" points="1608.33 2.51 1646.33 87.51 1675.33 76.51 1678.33 82.51 1766.33 45.51 1746.33 1.51 1608.33 2.51"/><polygon class="cls-2" points="1596.33 645.51 1626.33 633.51 1620.33 614.51 1516.33 661.51 1520.33 679.51 1556.33 664.51 1560.33 674.51 1599.33 657.51 1596.33 645.51"/><polygon class="cls-2" points="1515.33 660.51 1466.33 682.51 1495.33 796.51 1658.33 763.51 1639.33 680.51 1606.33 688.51 1616.33 735.51 1535.33 753.51 1519.33 687.51 1520.33 679.51 1515.33 660.51"/><line class="cls-2" x1="1616.33" y1="735.51" x2="1625.31" y2="770.2"/><polygon class="cls-2" points="1494.33 797.51 1518.33 901.51 1681.33 862.51 1658.33 763.51 1494.33 797.51"/><polygon class="cls-8" points="1555.33 819.51 1562.33 859.51 1625.33 844.51 1616.33 805.51 1555.33 819.51"/><polyline class="cls-2" points="1642.33 974.51 1618.17 877.62 1681.33 862.51 1704.33 959.51 1614.33 981.51 1537.33 1000.51 1520.33 920.51 1518.33 901.51 1618.17 877.62"/><polyline class="cls-2" points="1537.33 1000.51 1561.33 1103.51 1637.33 1086.51 1614.83 981.39 1599.33 910.51 1624.43 902.74"/><polygon class="cls-2" points="1704.33 959.51 1715.33 1012.51 1669.33 1021.51 1663.33 1003.51 1621.48 1012.48 1614.83 981.39 1704.33 959.51"/><polyline class="cls-2" points="1637.33 1086.51 1727.33 1066.51 1717.33 1024.51 1628.35 1044.56 1637.33 1086.51"/><polygon class="cls-2" points="1702.24 1299.19 1634.33 1362.51 1621.33 1352.51 1561.33 1103.51 1617.98 1090.84 1657.33 1265.51 1664.33 1258.51 1702.24 1299.19"/><polygon class="cls-2" points="1687.08 1102.51 1623.78 1116.58 1617.98 1090.84 1681.16 1076.77 1687.08 1102.51"/><path class="cls-6" d="M1724,658.15"/><path class="cls-6" d="M1701.51,577.8"/><polyline class="cls-2" points="1793.31 537.16 1869.33 503.51 1890.33 549.51 1812.33 580.51 1793.31 537.16"/><polyline class="cls-2" points="1702.29 578.58 1794.08 537.94 1806.32 565.83 1710.97 609.65 1702.29 578.58"/><polygon class="cls-2" points="1696.16 669.57 1676.01 588.23 1702.29 578.58 1725.29 655.72 1696.16 669.57"/><polygon class="cls-2" points="1978.1 459.28 1904.1 488.28 1937.1 568.28 2013.1 534.28 1978.1 459.28"/><polygon class="cls-2" points="2013.1 536.28 1937.1 568.28 1973.1 646.28 2048.1 613.28 2013.1 536.28"/><polygon class="cls-7" points="2047.33 613.51 1972.33 645.51 2010.33 732.51 2084.33 701.51 2047.33 613.51"/><polygon class="cls-2" points="2084.33 701.51 2121.33 782.51 2043.33 807.51 2010.33 732.51 2084.33 701.51"/><polygon class="cls-7" points="1903.49 874.86 2048.33 830.51 2068.33 874.51 1967.33 962.51 2016.33 1018.51 2171.33 884.51 2121.33 782.51 1898.33 855.51 1903.49 874.86"/><polygon class="cls-2" points="1967.33 962.51 1959.33 954.51 1910.33 996.51 1969.33 1062.51 2016.33 1018.51 1967.33 962.51"/><polygon class="cls-7" points="1910.33 996.51 1892.33 1012.51 1901.33 1023.51 1886.33 1036.51 1867.33 1011.51 1845.33 1033.51 1914.33 1109.51 1969.33 1062.51 1910.33 996.51"/><polygon class="cls-2" points="1861.99 1016.85 1845.33 996.51 1862.33 983.51 1827.33 943.51 1794.33 959.51 1848.33 1030.51 1861.99 1016.85"/><polygon class="cls-7" points="1845.33 1033.51 1837.33 1040.51 1805.33 1003.51 1785.33 1021.51 1882.33 1137.51 1914.33 1109.51 1845.33 1033.51"/><polygon class="cls-7" points="1833.2 1078.76 1799.33 1107.51 1816.33 1180.51 1828.33 1183.51 1882.33 1137.51 1833.2 1078.76"/><polygon class="cls-2" points="2173.33 224.51 2237.87 168.26 2343.33 289.51 2322.33 306.51 2314.33 299.51 2179.33 419.51 2157.87 389.02 2174.33 374.51 2154.36 351.08 2265.33 251.51 2236.33 220.51 2124.33 315.85 2099.33 286.51 2124.33 266.51 2173.33 224.51"/><polygon class="cls-2" points="2294.49 233.35 2317.33 212.51 2337.33 233.51 2343.33 227.51 2365.33 250.51 2336.51 281.67 2294.49 233.35"/><polygon class="cls-2" points="2322.33 306.51 2347.33 337.51 2368.33 322.51 2343.33 289.51 2322.33 306.51"/><polygon class="cls-2" points="2368.33 322.51 2347.33 337.51 2313.33 368.51 2338.33 398.51 2394.33 350.51 2368.33 322.51"/><polygon class="cls-2" points="2313.33 368.51 2206.33 459.51 2229.33 486.51 2338.33 398.51 2313.33 368.51"/><polygon class="cls-2" points="2348.79 296.73 2446.33 212.51 2466.33 237.51 2453.33 250.51 2471.33 272.51 2388.42 344.15 2368.33 322.51 2348.79 296.73"/><polygon class="cls-2" points="2446.33 212.51 2570.33 106.51 2610.33 156.51 2554.33 203.51 2545.33 191.51 2507.33 223.51 2517.33 234.51 2487.33 260.51 2446.33 212.51"/><polygon class="cls-2" points="2610.33 156.51 2388.33 344.51 2426.33 390.51 2607.33 235.51 2656.33 289.51 2696.33 253.51 2610.33 156.51"/><polygon class="cls-2" points="2660.74 285.54 2685.33 313.51 2655.33 340.51 2638.33 319.51 2619.33 334.51 2672.33 397.51 2755.33 325.51 2696.33 253.51 2660.74 285.54"/><polygon class="cls-2" points="2611.33 313.51 2526.33 387.51 2501.33 360.51 2586.33 285.51 2611.33 313.51"/><polygon class="cls-2" points="2471.33 447.51 2505.33 419.51 2467.33 375.51 2434.33 403.51 2471.33 447.51"/><polygon class="cls-2" points="2415.77 380.24 2384.33 405.51 2412.33 437.51 2417.33 435.51 2445.33 469.51 2469.08 448.51 2415.77 380.24"/><polygon class="cls-2" points="2105.33 456.51 2149.33 432.51 2172.33 444.51 2200.33 507.51 2147.33 555.51 2105.33 456.51"/><path class="cls-2" d="M2252.33,763.51c-1,0-18-3-18-3l-87-205,247-205L2416,378l-57.66,49.52,4,2-131,110,38,82,202-174,61,71Z"/><polygon class="cls-7" points="2619.33 334.51 2480.36 458.03 2534.33 520.51 2672.33 397.51 2619.33 334.51"/><polygon class="cls-7" points="1666.33 1573.51 1650.33 1503.51 1919.33 1261.51 1940.33 1283.51 1935.33 1290.51 2020.33 1409.51 1988.33 1433.51 1943.33 1371.51 1889.33 1422.51 1898.33 1430.51 1870.33 1454.51 1859.33 1445.51 1848.33 1452.51 1835.33 1435.51 1831.33 1441.51 1844.33 1461.51 1857.33 1467.51 1882.33 1511.51 1844.33 1534.51 1799.33 1453.51 1666.33 1573.51"/><polygon class="cls-2" points="1768.69 1481.16 1785.33 1499.51 1815.43 1482.49 1799.33 1453.51 1768.69 1481.16"/><polygon class="cls-2" points="1785.33 1499.51 1782.33 1502.51 1811.33 1554.51 1829.33 1540.51 1844.33 1534.51 1815.33 1482.51 1785.33 1499.51"/><polygon class="cls-2" points="1830.33 1542.51 1840.33 1561.51 1827.33 1568.51 1835.33 1587.51 1864.33 1573.51 1844.33 1534.51 1830.33 1542.51"/><polygon class="cls-2" points="1858.24 1561.64 1886.33 1547.51 1895.33 1563.51 1867.33 1577.51 1858.24 1561.64"/><polygon class="cls-2" points="1835.33 1587.51 1825.33 1595.51 1905.33 1747.51 1944.33 1727.51 1864.33 1573.51 1835.33 1587.51"/><polygon class="cls-2" points="1867.33 1577.51 1903.33 1560.51 1920.33 1590.51 1942.33 1578.51 1948.33 1589.51 1939.33 1594.51 1954.33 1622.51 1929.33 1636.51 1925.33 1627.51 1899.86 1641.91 1867.33 1577.51"/><polygon class="cls-2" points="1910.83 1663.02 1950.33 1641.51 1973.33 1684.51 1933.43 1706.54 1910.83 1663.02"/><polygon class="cls-2" points="1894.8 1727.51 1852.33 1736.51 1856.33 1757.51 1904.33 1747.51 1894.8 1727.51"/><polygon class="cls-2" points="1941.13 1721.36 1973.33 1704.51 1983.33 1727.51 1953.33 1742.51 1941.13 1721.36"/><path class="cls-6" d="M1744.53,2050.48l28.8-6,4,19,106-24-3-14,61-10-39-249s-2-11,10-12,13,9,14,11,42,266,42,266-2,17,4,28,7,12,30,12l2,12,81-18,49-5s36-1,33-40l-3-82-30-215s1-10,10-10c0,0,11-3,13,10l30,208,5,95c-2,52-48,56-48,56l-161,13c-43-8-39-56-39-56l-194.76,34.69"/><path class="cls-6" d="M1959.33,2050.51"/><path class="cls-7" d="M1787.33,2111.51l14,63,34-6,60,262s10,25,36,43h22l212-50-10-41,14-4-11-49-132,28,2,11-24,8-43-26-5-26,7-2-35-155-45,11-20-83Z"/><polygon class="cls-7" points="2155.33 2382.51 2304.33 2345.51 2313.33 2379.51 2440.33 2349.51 2452.33 2333.51 2429.33 2307.51 2512.73 2233.17 2571.33 2300.51 2456.88 2399.9 2176.33 2467.51 2155.33 2382.51"/><polygon class="cls-2" points="2233.33 2123.51 2201.33 2150.51 2219.33 2170.51 2251.33 2141.51 2233.33 2123.51"/><polygon class="cls-2" points="2251.33 2141.51 2179.33 2208.51 2300.33 2344.51 2330.33 2315.51 2337.33 2323.51 2378.33 2283.51 2251.33 2141.51"/><polygon class="cls-7" points="1919.33 1261.51 2028.33 1163.51 2064.33 1203.51 1975.33 1284.51 2015.33 1340.51 1987.15 1363.07 1935.33 1290.51 1940.33 1283.51 1919.33 1261.51"/><polygon class="cls-2" points="1987.33 1363.51 2028.33 1332.51 2085.33 1407.51 2111.33 1388.51 2104.33 1380.51 2254.33 1252.51 2291.33 1293.51 2161.33 1400.51 2135.33 1426.51 2069.33 1478.51 1987.33 1363.51"/><polygon class="cls-2" points="2028.33 1332.51 2081.33 1283.51 2206.33 1174.51 2216.33 1186.51 2209.33 1194.51 2222.33 1211.51 2188.33 1243.51 2190.33 1247.51 2068.33 1354.51 2061.33 1345.51 2047.39 1357.6 2028.33 1332.51"/><polygon class="cls-2" points="2076.33 1286.51 2058.33 1264.51 2084.33 1242.51 2088.33 1244.51 2099.33 1235.51 2093.33 1226.51 2118.33 1203.51 2116.33 1201.51 2144.33 1176.51 2169.33 1206.51 2076.33 1286.51"/><polygon class="cls-2" points="2194.33 1152.51 2174.33 1168.51 2190.33 1186.51 2211.33 1168.51 2194.33 1152.51"/><polygon class="cls-7" points="2028.33 1163.51 2165.33 1040.51 2185.33 1040.51 2260.33 1127.51 2211.33 1168.51 2167.33 1122.51 2139.33 1144.51 2133.33 1140.51 2065.33 1202.51 2028.33 1163.51"/><polygon class="cls-7" points="2206.33 1174.51 2261.33 1128.51 2356.33 1236.51 2300.33 1286.51 2206.33 1174.51"/><polygon class="cls-7" points="2356.33 1237.51 2293.33 1294.51 2344.33 1353.51 2326.33 1369.51 2342.33 1387.51 2360.33 1372.51 2386.33 1402.51 2452.33 1343.51 2356.33 1237.51"/><polygon class="cls-2" points="2168.33 1396.51 2203.33 1437.51 2315.33 1342.51 2281.33 1302.51 2168.33 1396.51"/><polygon class="cls-2" points="2136.33 1427.51 2079.33 1472.51 2173.33 1585.51 2226.33 1540.51 2136.33 1427.51"/><rect class="cls-2" x="2213.81" y="1428.67" width="149.04" height="49.68" transform="matrix(0.76, -0.64, 0.64, 0.76, -398.3, 1815.7)"/><polygon class="cls-2" points="2176.33 1589.51 2223.33 1643.51 2410.33 1485.51 2363.33 1429.51 2347.33 1443.51 2356.33 1452.51 2341.33 1464.51 2332.33 1455.51 2309.33 1474.51 2317.33 1484.51 2301.33 1500.51 2291.33 1491.51 2270.33 1509.51 2278.33 1519.51 2263.33 1532.51 2253.33 1521.51 2233.33 1540.51 2242.33 1550.51 2222.33 1568.51 2213.33 1558.51 2176.33 1589.51"/><polygon class="cls-2" points="2386.33 1403.51 2389.33 1406.51 2363.33 1429.51 2383.47 1453.51 2402.33 1438.51 2535.33 1594.51 2594.33 1659.51 2669.33 1595.51 2451.54 1344.22 2386.33 1403.51"/><polygon class="cls-2" points="1983.33 1443.51 1974.33 1429.51 1945.33 1453.51 1972.33 1484.51 1983.33 1478.51 1968.33 1454.51 1983.33 1443.51"/><polygon class="cls-2" points="2017.33 1419.51 1968.33 1454.51 2015.33 1518.51 2005.33 1526.51 2046.33 1578.51 2057.33 1572.51 2091.33 1619.51 2101.33 1631.51 2150.33 1595.51 2017.33 1419.51"/><polygon class="cls-2" points="2089.33 1619.51 2065.33 1636.51 2076.33 1654.51 2100.33 1633.51 2089.33 1619.51"/><polygon class="cls-2" points="2103.33 1632.51 2112.33 1644.51 2122.33 1636.51 2126.33 1642.51 2138.33 1630.51 2149.33 1645.51 2136.33 1657.51 2146.33 1669.51 2157.33 1661.51 2164.33 1672.51 2174.33 1665.51 2190.33 1684.51 2212.33 1667.51 2150.33 1596.51 2103.33 1632.51"/><polygon class="cls-2" points="2005.33 1507.51 1992.33 1515.51 1972.33 1485.51 1983.33 1479.51 2005.33 1507.51"/><polygon class="cls-2" points="2045.33 1675.51 2012.33 1683.51 2028.33 1741.51 2061.33 1732.51 2045.33 1675.51"/><polygon class="cls-2" points="2066.33 1671.51 2046.33 1675.51 2062.33 1732.51 2115.33 1717.51 2104.33 1677.51 2071.33 1687.51 2066.33 1671.51"/><polygon class="cls-2" points="2104.33 1677.51 2137.33 1663.51 2145.33 1675.51 2158.33 1669.51 2163.33 1677.51 2174.33 1671.51 2187.33 1686.51 2160.33 1708.51 2116.33 1717.51 2104.33 1677.51"/><polygon class="cls-2" points="2272.33 1727.51 2251.33 1749.51 2267.33 1765.51 2287.33 1742.51 2272.33 1727.51"/><polygon class="cls-2" points="2258.33 1635.51 2220.33 1671.51 2283.83 1739.01 2321.33 1701.51 2258.33 1635.51"/><polygon class="cls-2" points="2472.9 1521.29 2433.33 1557.51 2454.33 1582.51 2495.85 1548.21 2472.9 1521.29"/><polygon class="cls-7" points="2350.33 1673.51 2292.45 1730.39 2317.33 1756.51 2311.33 1763.51 2345.33 1799.51 2350.33 1793.51 2381.33 1825.51 2441.33 1765.51 2350.33 1673.51"/><polygon class="cls-2" points="2267.33 1875.51 2281.33 1891.51 2288.33 1883.51 2301.33 1897.51 2291.33 1906.51 2298.33 1914.51 2265.33 1945.51 2229.33 1910.51 2267.33 1875.51"/><polygon class="cls-7" points="2669.33 1595.51 2406.33 1822.51 2463.33 1889.51 2728.33 1662.51 2669.33 1595.51"/><polygon class="cls-2" points="2471.33 1924.51 2508.33 1972.51 2708.33 1794.51 2670.33 1749.51 2471.33 1924.51"/><polygon class="cls-7" points="2692.73 1776.04 2710.33 1759.51 2684.33 1730.51 2744.33 1680.51 2971.33 1936.51 2979.33 1936.51 2977.33 1957.51 2970.33 1957.51 2704.33 2187.51 2612.33 2083.51 2619.33 2073.51 2605.33 2056.51 2593.33 2064.51 2528.33 1987.51 2553.33 1966.51 2560.33 1966.51 2567.33 1975.51 2577.33 1969.51 2589.33 1967.51 2637.33 2023.51 2643.33 2023.51 2658.33 2042.51 2635.33 2062.51 2659.33 2090.51 2653.33 2097.51 2662.33 2107.51 2767.33 2017.51 2756.33 2004.51 2746.33 2011.51 2720.33 1982.51 2707.33 1996.51 2690.33 1978.51 2696.33 1977.51 2650.33 1924.51 2650.33 1909.51 2662.33 1892.51 2672.33 1882.51 2694.33 1873.51 2711.33 1877.51 2792.33 1969.51 2790.33 1983.51 2807.33 1985.51 2889.33 1913.51 2872.33 1892.51 2836.33 1923.51 2717.33 1789.51 2708.33 1794.51 2692.73 1776.04"/><polygon class="cls-2" points="2323.33 2015.51 2256.33 2072.51 2366.33 2199.51 2434.33 2143.51 2323.33 2015.51"/><polygon class="cls-2" points="2366.33 2199.51 2444.57 2293.77 2512.33 2233.51 2434.33 2143.51 2366.33 2199.51"/><polygon class="cls-2" points="2434.33 2143.51 2462.33 2121.51 2507.33 2172.51 2479.43 2197.51 2434.33 2143.51"/><polyline class="cls-2" points="2507.33 2172.51 2517.33 2163.51 2536.33 2187.51 2521.33 2199.51 2544.33 2224.51 2522.33 2243.51 2479.33 2197.51"/><polygon class="cls-2" points="2571.33 2300.51 2704.33 2187.51 2612.33 2083.51 2619.33 2073.51 2605.33 2056.51 2593.33 2064.51 2553.5 2017.34 2524.33 2043.51 2560.33 2086.51 2552.33 2091.51 2571.33 2113.51 2580.33 2107.51 2591.33 2121.51 2603.33 2111.51 2634.33 2147.51 2522.33 2243.51 2571.33 2300.51"/><polygon class="cls-2" points="2484.33 1979.51 2448.33 2021.51 2473.33 2044.51 2510.33 2001.51 2484.33 1979.51"/><polygon class="cls-2" points="2096.33 2626.51 2094.33 2617.51 2005.33 2639.51 2005.33 2641.51 1959.33 2653.51 1959.33 2651.51 1915.33 2660.51 1947.33 2802.51 2029.33 2783.51 2022.33 2754.51 2012.33 2756.51 2007.33 2735.51 2049.33 2726.51 2055.33 2751.51 2094.33 2742.51 2088.33 2716.51 2126.33 2707.51 2131.33 2730.51 2123.33 2734.51 2131.33 2784.51 2258.33 2769.51 2247.33 2738.51 2216.33 2742.51 2185.33 2605.51 2096.33 2626.51"/><polygon class="cls-2" points="1947.33 2802.51 1978.83 2946.68 2042.52 2931.08 2011.77 2787.58 1947.33 2802.51"/><polygon class="cls-2" points="2131.33 2784.51 2071.33 2793.51 2080.33 2848.51 2219.33 2825.51 2207.52 2775.51 2131.33 2784.51"/><polygon class="cls-2" points="2207.33 2775.51 2258.33 2769.51 2303.33 2867.51 2224.33 2886.51 2214.33 2851.51 2225.33 2847.51 2207.33 2775.51"/><polygon class="cls-2" points="2214.33 2851.51 2199.33 2855.51 2195.33 2840.51 2142.33 2852.51 2144.33 2865.51 2086.33 2878.51 2099.33 2914.51 2224.33 2886.51 2214.33 2851.51"/><polygon class="cls-2" points="2282.43 2941.15 2243.26 2954.81 2258.33 2994.51 2346.83 2966.01 2302.65 2867.68 2063.83 2926.01 2073.83 2969.01 2276.67 2920.35 2282.43 2941.15"/><polygon class="cls-7" points="2467.33 2621.51 2543.33 2709.51 2482.33 2761.51 2410.33 2673.51 2467.33 2621.51"/><polygon class="cls-2" points="2495.93 2749.91 2513.33 2768.51 2515.33 2767.51 2564.33 2822.51 2608.33 2785.51 2543.33 2709.51 2495.93 2749.91"/><polygon class="cls-2" points="2437.33 2750.51 2418.33 2764.51 2433.33 2789.51 2453.33 2775.51 2437.33 2750.51"/><polygon class="cls-6" points="2867.33 2192.51 2917.33 2251.51 2975.33 2197.51 2987.33 2199.51 3026.33 2243.51 3085.33 2192.51 2995.33 2089.51 2979.33 2092.51 2867.33 2192.51"/><polygon class="cls-6" points="3265.33 2394.51 3298.33 2432.51 3167.33 2550.51 3203.33 2591.51 3379.33 2437.51 3369.33 2426.51 3388.33 2410.51 3326.33 2339.51 3265.33 2394.51"/><line class="cls-6" x1="3635.33" y1="1.51" x2="2636.33" y2="1.51"/><polygon class="cls-2" points="2721.33 1.51 2752.33 40.51 2796.33 1.51 2721.33 1.51"/><polygon class="cls-2" points="2793.62 3.91 2827.33 40.51 2785.33 78.51 2752.33 40.51 2793.62 3.91"/><polygon class="cls-2" points="2825.33 46.51 2822.33 46.51 2785.33 80.51 2817.33 116.51 2856.33 81.51 2825.33 46.51"/><polygon class="cls-2" points="2823.66 1.51 2845.33 26.51 2873.49 1.51 2823.66 1.51"/><polygon class="cls-2" points="2858.57 14.76 2877.33 39.51 2921.33 88.51 2987.33 30.51 2960.83 1.51 2873.33 1.51 2858.57 14.76"/><polygon class="cls-2" points="2876.18 38 2844.58 68.25 2856.33 81.51 2866.33 71.51 2896.33 109.51 2921.33 88.51 2876.18 38"/><polygon class="cls-2" points="2817.33 116.51 2844.33 149.51 2896.33 109.51 2866.33 71.51 2856.33 81.51 2817.33 116.51"/><polygon class="cls-2" points="2986.66 31.09 3014.33 64.51 3011.33 78.51 2989.33 96.51 2974.33 94.51 2958.33 106.51 2962.33 121.51 2950.33 132.51 2937.33 135.51 2907.76 99.91 2986.66 31.09"/><path class="cls-7" d="M2844.33,149.51l44,51s2,3,12,0l54-43-47-58-11,10Z"/><polygon class="cls-2" points="3550.82 2.5 3618 84.06 3696.14 16.27 3684.83 2.01 3550.82 2.5"/><polygon class="cls-2" points="3480.16 1.51 3438.33 39.51 3403.49 1.51 3480.16 1.51"/><polygon class="cls-2" points="3370.49 1.51 3355.33 15.51 3414.33 80.51 3449.6 48.07 3405.83 2.01 3370.49 1.51"/><polygon class="cls-2" points="3422.03 73.51 3450.33 107.51 3479.58 83.72 3449.58 48.72 3422.03 73.51"/><polygon class="cls-2" points="3454.76 103.9 3483.74 82.14 3497.74 102.14 3472.33 124.51 3454.76 103.9"/><polygon class="cls-2" points="3355.33 15.51 3320.33 45.51 3383.33 118.51 3418.33 85.51 3355.33 15.51"/><polygon class="cls-2" points="3320.33 45.51 3283.33 79.51 3346.33 148.51 3383.33 118.51 3320.33 45.51"/><polygon class="cls-2" points="3365.59 132.89 3423.33 205.51 3408.33 220.51 3435.33 250.51 3506.33 190.51 3454.33 128.51 3441.33 139.51 3438.33 135.51 3422.33 146.51 3417.33 138.51 3426.35 130.2 3401.85 100.7 3383.33 118.51 3365.59 132.89"/><polygon class="cls-7" points="3283.33 79.51 3172.33 173.51 3280.33 296.51 3299.33 280.51 3292.33 269.51 3302.33 259.51 3301.33 254.51 3272.33 219.51 3261.33 220.51 3253.33 226.51 3244.33 217.51 3269.33 197.51 3279.33 202.51 3298.33 185.51 3295.33 172.51 3323.33 150.51 3331.33 160.51 3321.33 169.51 3321.33 177.51 3351.33 210.51 3358.33 210.51 3383.33 191.51 3283.33 79.51"/><polygon class="cls-2" points="3382.45 192.02 3369.9 201.72 3379.33 213.51 3297.66 277.89 3299.33 280.51 3280.33 296.51 3324.33 345.51 3435.45 251.02 3382.45 192.02"/><polygon class="cls-2" points="3280.33 296.51 3245.41 329.68 3287.41 375.68 3323.63 344.74 3280.33 296.51"/><polygon class="cls-2" points="3172.33 173.51 3135.33 204.51 3195.33 274.51 3232.25 241.76 3172.33 173.51"/><polygon class="cls-7" points="3135.33 204.51 3067.33 264.51 3125.33 331.51 3141.33 319.51 3128.33 302.51 3171.33 265.51 3194.33 292.51 3203.33 284.51 3135.33 204.51"/><polygon class="cls-2" points="3147.33 313.51 3141.33 319.51 3125.33 331.51 3168.33 376.51 3178.33 367.51 3173.33 359.51 3175.33 355.51 3170.33 337.51 3147.33 313.51"/><path class="cls-2" d="M3203.33,284.51l-20,19,22,24,9,2,8-11,7,9v5c0,1-10,11-10,11l-7-7-44,40,51,56,67-56Z"/><polyline class="cls-7" points="3067.33 264.51 2995.33 325.51 3057.33 399.51 3143.33 494.51 3219.33 432.51 3183.95 393.67 3143.33 430.51 3074.33 351.51 3113.38 317.71 3068.37 265.72"/><line class="cls-6" x1="2860.33" y1="2615.97" x2="2804.3" y2="2664.18"/><line class="cls-6" x1="2780.83" y1="2524.25" x2="2724.89" y2="2573.95"/><path class="cls-6" d="M2720.75,2587.31"/><polyline class="cls-6" points="2786.33 2660.51 2780.08 2652.51 2814.93 2621.99 2831.38 2640.88"/><polyline class="cls-6" points="2725.79 2592.93 2732.36 2599.97 2767.93 2568.91 2751.24 2550.54"/><polyline class="cls-6" points="2866.89 2576.48 2814.93 2621.99 2767.93 2568.91 2821.12 2522.61"/><path class="cls-6" d="M2748.84,2585.58a76.52,76.52,0,0,0,3.42,17.55,61.53,61.53,0,0,0,10.13,17.88,63.85,63.85,0,0,0,18.39,14,47.91,47.91,0,0,0,14.56,4.14"/><path class="cls-6" d="M2742.88,2590.78a86,86,0,0,0,4.61,17.57c2.72,7,8.37,14.13,11.14,17.24a65,65,0,0,0,16.8,13.09,63.7,63.7,0,0,0,14.4,5.29"/><path class="cls-6" d="M2737.33,2595.63a68.76,68.76,0,0,0,3.58,15.95c2.76,7.65,8.7,15.48,11.71,18.92,2.78,3.17,8.75,9.61,15.45,13.15a57.54,57.54,0,0,0,15.86,5.5"/><line class="cls-6" x1="2781.02" y1="2557.51" x2="2764.33" y2="2538.6"/><rect class="cls-9" x="2778.36" y="2592.87" width="13.69" height="15.5" transform="translate(-1022.66 2456.67) rotate(-40.87)"/><rect class="cls-9" x="2778.49" y="2593.23" width="12.58" height="15.5" transform="translate(-1023 2456.48) rotate(-40.87)"/><rect class="cls-10" x="2789.8" y="2596.34" width="0.4" height="0.4" transform="translate(2927.73 -1212.28) rotate(49.13)"/><line class="cls-6" x1="2877.02" y1="2588.4" x2="2808.99" y2="2508.34"/><line class="cls-11" x1="2810.38" y1="2534.59" x2="2810.66" y2="2534.35"/><g id="group1372-918"><g id="shape1373-919"><path id="path1805" class="cls-12" d="M2785.73,2556l1.54-1.34,11.75,13.5-1.54,1.34Zm1.54-1.34,1.54-1.34,11.75,13.5-1.54,1.34Zm1.54-1.34,1.54-1.34,11.75,13.5-1.54,1.34Zm1.54-1.34,1.54-1.34,11.75,13.5-1.54,1.34Zm1.54-1.34,1.54-1.34,11.75,13.5-1.54,1.34Zm1.54-1.34L2795,2548l11.75,13.5-1.54,1.34ZM2795,2548l1.54-1.34,11.75,13.5-1.54,1.34Zm1.54-1.34,1.54-1.34,11.75,13.5-1.54,1.34Zm1.54-1.34,1.54-1.34,11.75,13.5-1.54,1.34Zm1.54-1.34,1.54-1.34,11.75,13.5-1.54,1.34Zm1.54-1.34,1.54-1.34,11.75,13.5-1.54,1.34Zm1.54-1.34,1.54-1.34,11.75,13.5-1.54,1.34Zm1.54-1.34,1.54-1.34,11.75,13.5-1.54,1.34Zm1.54-1.34,1.54-1.34,11.75,13.5-1.54,1.34Zm1.54-1.34,1.54-1.34,11.75,13.5-1.54,1.34Z"/></g><g id="shape1374-921"><path id="path1810" class="cls-13" d="M2808.78,2559.18l12.76-11.11a.4.4,0,0,1,.56,0h0l.3-.26a.8.8,0,0,0-1.12-.08h0l-12.76,11.11Zm-11.23-12.9,12.76-11.11a.4.4,0,0,0,0-.56l.3-.26a.8.8,0,0,1-.08,1.12h0l-12.76,11.11Zm-1.87,24.83.3-.26a.4.4,0,0,1,0-.56h0l12.76-11.11-.26-.3L2795.76,2570a.8.8,0,0,0-.08,1.12h0Zm-11.75-13.5.3-.26a.4.4,0,0,0,.56,0l12.76-11.11.26.3-12.76,11.11a.8.8,0,0,1-1.12-.08h0Z"/><path id="path1812" class="cls-14" d="M2808.78,2559.18l12.76-11.11a.4.4,0,0,1,.56,0h0l.3-.26a.8.8,0,0,0-1.12-.08h0l-12.76,11.11m-11-12.6,12.76-11.11a.4.4,0,0,0,0-.56l.3-.26a.8.8,0,0,1-.08,1.12h0l-12.76,11.11m-2.14,24.53.3-.26a.4.4,0,0,1,0-.56h0l12.76-11.11m-.26-.3L2795.76,2570a.8.8,0,0,0-.08,1.12h0m-11.75-13.5.3-.26a.4.4,0,0,0,.56,0l12.76-11.11m.26.3-12.76,11.11a.8.8,0,0,1-1.12-.08h0"/></g><g id="shape1375-924"><text class="cls-15" transform="translate(2788.87 2565.64) rotate(-41.04)"><tspan class="cls-16" x="1.71" y="0"></tspan><tspan x="2.29" y="0"></tspan></text></g><g id="shape1377-926"><path id="path1824" class="cls-14" d="M2791.61,2562.79l3.45-3"/></g><g id="shape1378-929"><path id="path1829" class="cls-17" d="M2792.49,2558.73l2.57,1.06.69,2.69"/><path id="path1831" class="cls-17" d="M2791.67,2561.92l-.12,1.75"/></g></g><g id="group1381-937"><g id="shape1382-938"><path id="path1845" class="cls-12" d="M2818.37,2593.54l1.54-1.34,11.75,13.5-1.54,1.34Zm1.54-1.34,1.54-1.34,11.75,13.5-1.54,1.34Zm1.54-1.34,1.54-1.34,11.75,13.5-1.54,1.34Zm1.54-1.34,1.54-1.34,11.75,13.5-1.54,1.34Zm1.54-1.34,1.54-1.34,11.75,13.5-1.54,1.34Zm1.54-1.34,1.54-1.34,11.75,13.5-1.54,1.34Zm1.54-1.34,1.54-1.34,11.75,13.5-1.54,1.34Zm1.54-1.34,1.54-1.34,11.75,13.5-1.54,1.34Zm1.54-1.34,1.54-1.34L2844,2595l-1.54,1.34Zm1.54-1.34,1.54-1.34,11.75,13.5L2844,2595Zm1.54-1.34,1.54-1.34,11.75,13.5-1.54,1.34Zm1.54-1.34,1.54-1.34,11.75,13.5-1.54,1.34Zm1.54-1.34,1.54-1.34,11.75,13.5-1.54,1.34Zm1.54-1.34,1.54-1.34,11.75,13.5-1.54,1.34Zm1.54-1.34,1.54-1.34,11.75,13.5-1.54,1.34Z"/></g><g id="shape1383-940"><path id="path1850" class="cls-13" d="M2841.42,2596.67l12.76-11.11a.4.4,0,0,1,.56,0h0l.3-.26a.8.8,0,0,0-1.12-.08h0l-12.76,11.11Zm-11.23-12.9,12.76-11.11a.4.4,0,0,0,0-.56l.3-.26a.8.8,0,0,1-.08,1.12h0l-12.76,11.11Zm-1.87,24.83.3-.26a.4.4,0,0,1,0-.56h0l12.76-11.11-.26-.3-12.76,11.11a.8.8,0,0,0-.08,1.12h0Zm-11.75-13.5.3-.26a.4.4,0,0,0,.56,0l12.76-11.11.26.3-12.76,11.11a.8.8,0,0,1-1.12-.08h0Z"/><path id="path1852" class="cls-14" d="M2841.42,2596.67l12.76-11.11a.4.4,0,0,1,.56,0h0l.3-.26a.8.8,0,0,0-1.12-.08h0l-12.76,11.11m-11-12.6,12.76-11.11a.4.4,0,0,0,0-.56l.3-.26a.8.8,0,0,1-.08,1.12h0l-12.76,11.11m-2.14,24.53.3-.26a.4.4,0,0,1,0-.56h0l12.76-11.11m-.26-.3-12.76,11.11a.8.8,0,0,0-.08,1.12h0m-11.75-13.5.3-.26a.4.4,0,0,0,.56,0l12.76-11.11m.26.3-12.76,11.11a.8.8,0,0,1-1.12-.08h0"/></g><g id="shape1384-943"><text class="cls-15" transform="translate(2821.51 2603.13) rotate(-41.04)"><tspan class="cls-16" x="1.71" y="0"></tspan><tspan x="2.29" y="0"></tspan></text></g><g id="shape1386-945"><path id="path1864" class="cls-14" d="M2824.25,2600.29l3.45-3"/></g><g id="shape1387-948"><path id="path1869" class="cls-17" d="M2825.13,2596.22l2.57,1.06.69,2.69"/><path id="path1871" class="cls-17" d="M2824.31,2599.41l-.12,1.75"/></g></g><g id="group1390-956"><g id="shape1391-957"><path id="path1885" class="cls-18" d="M2822.52,2549.85l-24.3,21.15-2.24-.16,25.49-22.19.52.6Z"/></g><g id="shape1395-966"><path id="path1903" class="cls-14" d="M2822,2549.25l.52.6-24.3,21.15"/><path id="path1905" class="cls-14" d="M2822,2549.25l-.52-.6L2796,2570.85"/></g></g><g id="group1397-972"><g id="shape1398-973"><path id="path1916" class="cls-12" d="M2798.79,2571l1.54-1.34,18.28,21-1.54,1.34Zm1.54-1.34,1.54-1.34,18.28,21-1.54,1.34Zm1.54-1.34,1.54-1.34,18.28,21-1.54,1.34Zm1.54-1.34,1.54-1.34,18.28,21-1.54,1.34Zm1.54-1.34,1.54-1.34,18.28,21-1.54,1.34Zm1.54-1.34L2808,2563l18.28,21-1.54,1.34ZM2808,2563l1.54-1.34,18.28,21-1.54,1.34Zm1.54-1.34,1.54-1.34,18.28,21-1.54,1.34Zm1.54-1.34,1.54-1.34,18.28,21-1.54,1.34Zm1.54-1.34,1.54-1.34,18.28,21-1.54,1.34Zm1.54-1.34,1.54-1.34,18.28,21-1.54,1.34Zm1.54-1.34,1.54-1.34,18.28,21-1.54,1.34Zm1.54-1.34,1.54-1.34,18.28,21-1.54,1.34Zm1.54-1.34,1.54-1.34,18.28,21-1.54,1.34Zm1.54-1.34,1.54-1.34,18.28,21-1.54,1.34Z"/></g><g id="shape1399-975"><path id="path1921" class="cls-13" d="M2828.37,2581.67l12.76-11.11a.4.4,0,0,1,.56,0h0l.3-.26a.8.8,0,0,0-1.12-.08h0l-12.76,11.11Zm-17.76-20.4,12.76-11.11a.4.4,0,0,0,0-.56h0l.3-.26a.8.8,0,0,1-.08,1.12h0l-12.76,11.11Zm4.65,32.33.3-.26a.4.4,0,0,1,0-.56h0l12.76-11.11-.26-.3-12.76,11.11a.8.8,0,0,0-.08,1.12h0Zm-18.28-21,.3-.26a.4.4,0,0,0,.56,0h0l12.76-11.11.26.3-12.76,11.11a.8.8,0,0,1-1.12-.08h0Z"/><path id="path1923" class="cls-14" d="M2828.37,2581.67l12.76-11.11a.4.4,0,0,1,.56,0h0l.3-.26a.8.8,0,0,0-1.12-.08h0l-12.76,11.11m-17.49-20.1,12.76-11.11a.4.4,0,0,0,0-.56h0l.3-.26a.8.8,0,0,1-.08,1.12h0l-12.76,11.11m4.39,32,.3-.26a.4.4,0,0,1,0-.56h0l12.76-11.11m-.26-.3-12.76,11.11a.8.8,0,0,0-.08,1.12h0m-18.28-21,.3-.26a.4.4,0,0,0,.56,0h0l12.76-11.11m.26.3-12.76,11.11a.8.8,0,0,1-1.12-.08h0"/></g><g id="shape1400-978"><text class="cls-15" transform="translate(2804.93 2584.61) rotate(-41.04)"><tspan class="cls-16" x="1.71" y="0"></tspan><tspan x="2.29" y="0"></tspan></text></g><g id="shape1402-980"><path id="path1935" class="cls-14" d="M2807.93,2581.54l3.45-3"/></g><g id="shape1403-983"><path id="path1940" class="cls-17" d="M2807.38,2576.89l4,1.65,1.08,4.19"/><path id="path1942" class="cls-17" d="M2808,2580.18l-.19,2.73"/></g></g><g id="group1406-991"><g id="shape1407-992"><path id="path1956" class="cls-18" d="M2842.1,2572.35l-25.49,22.19.15-2.24,24.3-21.15.52.6Z"/></g><g id="shape1411-1001"><path id="path1974" class="cls-14" d="M2841.58,2571.75l.52.6-25.49,22.19"/><path id="path1976" class="cls-14" d="M2841.58,2571.75l-.52-.6-24.3,21.15"/></g></g><g id="group1413-1007"><g id="shape1414-1008"><path id="path1987" class="cls-18" d="M2798.23,2571l18.54,21.3-.16,2.24-20.63-23.7Z"/></g><g id="shape1418-1017"><path id="path2005" class="cls-14" d="M2798.23,2571l18.54,21.3"/><path id="path2007" class="cls-14" d="M2796,2570.85l20.63,23.7"/></g></g><text class="cls-19" transform="matrix(0.7, 0.71, -0.71, 0.7, 2787.3, 2529.83)">402</text><text class="cls-19" transform="matrix(0.7, 0.71, -0.71, 0.7, 2739.47, 2569.57)">402-<tspan class="cls-20" x="9.17" y="0">A</tspan></text><text class="cls-19" transform="matrix(0.7, 0.71, -0.71, 0.7, 2846.47, 2607.83)">403</text><text class="cls-19" transform="matrix(0.7, 0.71, -0.71, 0.7, 2803.14, 2641.28)">403-<tspan class="cls-20" x="9.17" y="0">A</tspan></text><text class="cls-19" transform="matrix(0.7, 0.71, -0.71, 0.7, 2767.9, 2612.39)">401</text><path class="cls-14" d="M2781.05,2653.75s-11.16,7.62-22.39,7.25c-11.87-.39-23.93-8.84-27.11-12.23-3.6-3.83-10.24-17.85-9.29-29.61.9-11.08,9.29-20.05,9.29-20.05"/><path class="cls-3" d="M1567,2658.51l21,89-3.6.71,76.5,323.84-24.4.29L1489,2420.51l-138-585-134,128-52,41-64,35-53,24,150,619L1294,3072h-27l-155-637.49-37.35,7.34-250.49,49.66s-12.13,2.5-17-7.5,9.83-15.5,9.83-15.5l250-49.71,40-8.29-83-342L1,2182.51v-23l840-97-2-57-61,15-214.47,25.83c-31.53,1.17-61.53-20.83-67-52.33l-31.81-253.88q-.95-7.57-1.14-15.14s-5.39-57.71,31.71-95.83c1.09-1.12,1.86-1.19,3.69-3.66,5.45-7.34,40-53,35-83-.27-20.39-22.73-155.17-36-248,0,0-1-7,10-11s14,6,14,6c1.36.12,21.87,159.61,31,226,9.38,68.24-14,99-43,135s-23.05,71.73-23.05,71.73a69.75,69.75,0,0,0,.94,14.43L512,1920.51l11.81,69.57a38.49,38.49,0,0,0,42.84,31.74L772,1995.51l27.84-5.72,32.14-6.08,4-1c-1.83-96-22.17-161-22.17-161L593.67,900.85s-2.5-10,8-16,15.17,6.5,15.17,6.5l202,851.33c13.51,53.17,27.58,97.17,32.67,135.33,4,29.79,7.66,55.3,9.25,76.5,6.63,88.36,5.22,106.38,5.22,106.38l164.2-17.55,53.67-23,69-37.67,50.67-37.33,142-138-24.67-198L1120,783.26,997.5,746.51l-99-37.75L752.5,690,626.88,721.14,305.5,862.68l57.67,243.5c1.5,6.33,2.83,18-9.17,20.33s-12.83-9.67-12.83-9.67L282.25,872.51,1,997.18V970.35L30.5,955,.5,859.68v-34l12.33-5.83,40.5,126,223.5-96.67-20-84.38,24-4.62L299.67,839,622.5,696.68,739.17,669,597.83,1H626.5L763.83,667.35,820,671l80.33,11.33L1002.17,723l110.17,32.83L1000,404.68,835.67,442s-8.83,2-12.33-8.5,6.17-16,6.17-16l164-35.5L908,.51l26.5.5,87,389.33,121,378.33,177,731,21.33,88.33L1567,1453.51l5,23.72-226.87,137.28,25,195.17L1512,2410.51l39,174Z"/><polygon class="cls-2" points="226.88 2.39 237.67 23.92 285.38 2.44 226.88 2.39"/><line class="cls-6" x1="1.33" y1="1012.68" x2="1.33" y2="1053.51"/><path class="cls-3" d="M1219.54,942.51"/><polygon class="cls-2" points="1.33 1396.35 98.33 1372.51 90.33 1338.51 31.33 1352.51 18.33 1296.51 18.33 1296.51 1.33 1229.35 1.33 1396.35"/><line class="cls-2" x1="18.33" y1="1296.51" x2="1.33" y2="1302.35"/><polygon class="cls-2" points="226.33 1354.53 216.33 1307.53 90.33 1338.53 98.33 1372.53 123.66 1368.96 126.33 1383.17 180.33 1375.17 178.33 1367.17 226.33 1354.53"/><polygon class="cls-2" points="685.33 2757.51 726.45 2758.26 731.83 2784.64 692 2787.54 685.33 2757.51"/><polygon class="cls-2" points="824.02 2809.19 776.08 2819.99 796.33 2918.51 848.33 2918.51 824.02 2809.19"/><path class="cls-2" d="M669.33,2428.51"/><polygon class="cls-2" points="679.63 2473.38 686.63 2470.38 689.63 2485.38 727.63 2475.38 715.33 2420.51 669.63 2428.38 679.63 2473.38"/><polyline class="cls-7" points="1702.24 1299.19 1767.33 1238.51 1727.33 1066.51 1681.16 1076.77 1712.33 1217.51 1664.33 1258.51 1702.24 1299.19"/><path class="cls-6" d="M1283.49,2.51h-49.33l333.17,1452L1792.7,2513.64l-211,16.19s-13-1-14.83,10.85,13.17,13.17,20.33,13.17,210.5-16.33,210.5-16.33l49.67,228.83L1687,2789.76s-13.25.63-13.12,12.88,14.63,11.38,14.63,11.38l163.88-24.37,77.67,282.2,43.55,1.91L1893.83,2759l-36-178.5,365.75-52.25L2385,2919,2458,3072l24.48-.16-71.44-153.33-162.75-395.25,166.5-41.75,516.75,590.33,33.22-.4L2438,2471.2l34.88-19.52L3106,1925l142.21,179,34.33,52.33L3494.08,2364l14.13,14,8.63,7.5,8,11.75-31.5,21.58L3411.49,2489l-107.33,91.33-573.33,491.49,36.67.16,738.58-633.24,35.5-22.75,302,372.81v-40.06L3584.08,2427l-25.5-27.75-23.5-30.5-42.5-40-140.75-139-40.5-40L3432.83,2040l408.73-343.33v-31.5l-415.06,349.17-131,116.83-36.33-53.83L3116.49,1898l-76.67-87-673.25-767.5-62.75-86.33-50.5-75.92,7-4.25L2879.2,321.64l177.63,207.88,72,67.5,712.73,812.88v-36L3157.08,590.76,3830.33,2h-36.57L3140.2,573.89,3080.33,520,2898.58,306.26,3261.33,1.51h-37.83l-77.67,64.25L3090,1.51h-31.92l69,79.5L2881.33,287,2636,2h-31L2862.7,302.14,2258.49,846.85l-210.83-469.5L2042,365.68l-4.92-6.92L1871,2h-25.92l167.17,364.5L1424.08,607Z"/><polygon class="cls-2" points="1694.58 2607.83 1621.33 2619.51 1626.97 2649.84 1700.33 2638.51 1694.58 2607.83"/><polygon class="cls-2" points="1644.8 3009.25 1614.83 2882.63 1651.63 2873.57 1680.83 3000.01 1644.8 3009.25"/><polygon class="cls-2" points="2331.66 2653.68 2282.99 2681.68 2339.08 2798.76 2391.58 2771.76 2331.66 2653.68"/><polygon class="cls-2" points="2405.08 2766.01 2415.33 2782.01 2410.33 2784.76 2418.33 2801.76 2378.58 2822.51 2384.83 2835.26 2363.83 2846.76 2339.08 2798.76 2405.08 2766.01"/><polygon class="cls-2" points="2244.33 2596.51 2406.33 2546.51 2467.33 2621.51 2410.33 2673.51 2369.33 2624.51 2325.33 2640.51 2331.33 2652.51 2284.33 2679.51 2244.33 2596.51"/><polygon class="cls-2" points="1291.58 2942.76 1303.83 2994.76 1405.58 2980.01 1397.2 2926.64 1291.58 2942.76"/><polygon class="cls-21" points="2123.64 2999.77 2133.66 3035.18 2241.83 2999.34 2231.8 2965.94 2123.64 2999.77"/><polygon class="cls-2" points="2564.33 2822.51 2579.66 2839.34 2588.16 2833.84 2610.66 2862.18 2563.16 2902.01 2587.99 2933.34 2616.08 2909.76 2672.83 2864.01 2605.85 2787.6 2564.33 2822.51"/><polygon class="cls-2" points="332.74 2940.24 337.49 2967.89 437.24 2951.73 433.51 2924.37 419.35 2926.87 420.68 2933.23 408.43 2935.06 407.66 2928.08 332.74 2940.24"/><polygon class="cls-2" points="35.33 2790.51 68.33 2783.51 70.33 2788.51 107.55 2781.66 132.16 2911.01 92.66 2918.34 87.33 2892.18 64.49 2896.84 58.12 2864.51 83.2 2861.51 73.83 2810.01 37.53 2812.51 35.33 2790.51"/><path class="cls-6" d="M1.56,2912.76"/><polygon class="cls-2" points="0.83 2909.76 23.33 2906.76 28.58 2940.76 11.58 2946.01 25.83 3038.76 56.33 3034.01 59.58 3057.51 28.08 3062.01 30.2 3071.84 0.83 3071.84 0.83 2909.76"/><polygon class="cls-2" points="92.66 2918.34 95.16 2932.01 78.83 2934.68 83.74 2958.68 99.49 2956.68 104.16 2981.34 78.83 2986.34 83.74 3007.68 108.16 3003.68 113.49 3028.34 88.49 3033.68 94.16 3057.68 118.16 3053.34 122.49 3071.84 159.83 3071.84 132.16 2911.01 92.66 2918.34"/><polygon class="cls-2" points="115.49 2816.34 121.72 2856.16 452.33 2820.4 448.33 2781.68 115.49 2816.34"/><polygon class="cls-2" points="121.72 2856.16 127.34 2885.68 155.83 2880.34 151.19 2852.97 121.72 2856.16"/><polygon class="cls-2" points="127.34 2885.68 245.83 2867.34 251.16 2895.01 236.16 2897.01 239.83 2923.01 136.82 2938.13 127.34 2885.68"/><polygon class="cls-2" points="136.82 2938.13 152.19 2935.87 158.16 2970.01 142.72 2972.36 136.82 2938.13"/><polygon class="cls-2" points="142.72 2972.36 249.49 2954.12 254.83 2980.68 147.88 3002.39 142.72 2972.36"/><polygon class="cls-2" points="254.83 2980.68 288.83 2976.68 287.49 2970.01 295.83 2970.01 288.16 2925.34 246.83 2935.87 254.83 2980.68"/><polygon class="cls-2" points="147.88 3002.39 254.83 2982.68 263.83 3028.34 238.16 3033.34 235.83 3026.34 221.16 3028.68 222.49 3035.34 155.74 3048.08 147.88 3002.39"/><polygon class="cls-2" points="155.74 3048.08 172.15 3044.95 178.49 3071.84 159.83 3071.84 155.74 3048.08"/><polygon class="cls-2" points="255.78 2981.93 285.08 2978.26 294.24 3023.34 296.74 3024.84 307.08 3071.84 273.33 3071.84 255.78 2981.93"/><polygon class="cls-2" points="450.08 3020.01 454.83 3045.05 464.66 3043.34 470.83 3071.84 495.9 3072.01 484.16 3012.68 450.08 3020.01"/><polygon class="cls-2" points="616.33 2760.51 651.33 2931.01 760.33 2909.16 744.83 2839.35 733.83 2839.35 728.37 2817.2 699.45 2823.01 681.69 2756.64 616.33 2760.51"/><polygon class="cls-2" points="587.28 2879.81 600.08 2946.01 652.08 2936.76 637.33 2868.51 587.28 2879.81"/><polygon class="cls-2" points="651.33 2931.01 749.08 2911.41 778.49 3066.01 756.16 3071.84 678.33 3071.84 651.33 2931.01"/><polygon class="cls-21" points="781.24 3071.84 778.49 3066.01 756.16 3071.84 781.24 3071.84"/><polygon class="cls-2" points="772.08 3026.01 812.2 3018.26 804.83 2972.76 854.58 2963.21 846.53 2918.51 796.33 2918.51 797.08 2924.76 753.38 2931.01 772.08 3026.01"/><polygon class="cls-21" points="819.74 3045.76 812.62 3018.26 771.29 3026.01 776.45 3053.11 819.74 3045.76"/><polygon class="cls-2" points="846.53 2918.51 888.33 2918.51 894.21 2946.95 854.58 2955.01 846.53 2918.51"/><polygon class="cls-2" points="925.83 2909.16 888.33 2918.51 894.21 2946.95 933.83 2939.34 925.83 2909.16"/><polygon class="cls-2" points="2369.45 3071.84 2393.33 3060.89 2399.45 3071.84 2369.45 3071.84"/><polygon class="cls-2" points="3074.83 2884.34 3204.33 2769.51 3273.08 2849.51 3254.58 2866.26 3245.33 2856.76 3211.83 2888.01 3215.3 2892.51 3198.33 2911.01 3190.58 2904.76 3156.08 2932.01 3169.83 2951.51 3151.11 2970.76 3074.83 2884.34"/><polygon class="cls-2" points="3240.58 2894.76 3323.08 2986.76 3344.08 2969.01 3351.08 2975.26 3361.33 2966.76 3372.08 2977.01 3339.33 3006.76 3397.08 3072 3471.33 3071.84 3273.08 2849.51 3257.21 2863.88 3264.58 2873.51 3240.58 2894.76"/><polygon class="cls-2" points="3841.56 2374.34 3819.49 2392.68 3821.49 2395.68 3807.83 2407.01 3802.83 2402.68 3751.16 2446.68 3778.49 2478.01 3789.83 2469.68 3810.49 2494.34 3735.49 2558.34 3655.16 2466.34 3827.16 2314.34 3834.83 2324.34 3841.56 2317.34 3841.56 2374.34"/><polygon class="cls-2" points="3794.49 2510.68 3736.83 2560.01 3841.56 2682.01 3841.56 2508.26 3838.58 2508.26 3837.33 2529.83 3809.83 2528.51 3794.49 2510.68"/><path class="cls-2" d="M3841.56,2302.51l-104.19,91.19L3711.83,2365l41.5-35.67-1.83-5.17,37.5-32.83s1,1.5,1.67,2.33,50.9-46,50.9-46Z"/><polygon class="cls-2" points="3715.77 2369.44 3701.49 2380.68 3664.83 2338.68 3674.49 2331.68 3678.16 2333.34 3704.16 2313.01 3681.16 2283.68 3577.16 2374.34 3655.16 2466.34 3737.36 2393.7 3715.77 2369.44"/><polygon class="cls-2" points="3577.16 2374.34 3472.16 2255.68 3539.49 2191.68 3567.49 2221.34 3629.83 2166.34 3617.49 2151.34 3643.16 2133.34 3732.49 2236.34 3707.83 2259.01 3683.49 2231.68 3621.49 2286.68 3628.49 2294.01 3635.83 2289.34 3651.52 2309.52 3577.16 2374.34"/><polygon class="cls-2" points="3539.49 2191.68 3522.49 2172.34 3610.49 2096.68 3574.16 2056.68 3420.16 2191.68 3472.16 2255.68 3539.49 2191.68"/><polygon class="cls-2" points="3574.16 2056.68 3742.33 1911.51 3797.33 1979.01 3674.83 2082.18 3648.99 2107.01 3659.83 2118.51 3666.16 2113.01 3693.7 2144.26 3687.83 2152.01 3683.33 2147.01 3666.6 2160.37 3574.16 2056.68"/><polygon class="cls-2" points="3666.6 2160.37 3683.33 2147.01 3696.2 2161.51 3801.58 2066.51 3766.08 2026.01 3805.83 1991.76 3841.56 2031.26 3841.56 2090.76 3799.33 2128.26 3804.58 2135.51 3796.08 2145.26 3822.83 2173.26 3809.58 2187.26 3791.83 2170.01 3745.16 2211.68 3752.16 2221.01 3732.49 2236.34 3666.6 2160.37"/><polygon class="cls-2" points="3681.16 2283.68 3771.83 2207.26 3794.33 2234.51 3704.16 2313.01 3681.16 2283.68"/><polygon class="cls-2" points="3841.56 2156.76 3799.83 2197.26 3841.56 2238.76 3841.56 2156.76"/><polygon class="cls-2" points="3803.16 2152.68 3840.08 2121.26 3826.07 2104.51 3799.33 2128.26 3804.58 2135.51 3796.08 2145.26 3803.16 2152.68"/><polygon class="cls-2" points="3674.7 2083.89 3687.08 2097.51 3719.2 2069.14 3708.7 2055.01 3674.7 2083.89"/><polygon class="cls-2" points="3790.23 1970.3 3807.83 1956.26 3821.08 1970.3 3838.08 1956.26 3824.58 1940.51 3841.56 1926.26 3841.56 1861.76 3822.83 1841.76 3742.33 1911.51 3790.23 1970.3"/><polygon class="cls-6" points="3841.56 1825.76 3822.83 1841.76 3841.56 1861.76 3841.56 1825.76"/><polygon class="cls-2" points="3304.08 2045.26 3285.33 2045.26 3140.58 1874.51 3182.58 1841.26 3206.58 1872.76 3224.33 1856.51 3294.08 1936.76 3314.08 1919.51 3331.08 1941.01 3391.83 1888.76 3432.08 1935.26 3304.08 2045.26"/><polygon class="cls-2" points="3432.08 1935.26 3572.83 1814.76 3518.83 1752.01 3496.33 1771.01 3502.45 1781.76 3413.33 1860.51 3393.58 1838.01 3398.33 1833.76 3378.08 1809.76 3374.08 1813.01 3346.08 1780.76 3320.08 1803.26 3432.08 1935.26"/><polygon class="cls-2" points="3386.6 1881.67 3343.83 1919.26 3263.83 1823.76 3206.58 1872.76 3182.58 1841.26 3278.83 1754.01 3386.6 1881.67"/><polygon class="cls-2" points="3278.49 1841.26 3241.58 1870.51 3229.05 1853.53 3263.83 1823.76 3278.49 1841.26"/><polygon class="cls-2" points="3572.83 1814.76 3709.99 1696.85 3668.66 1650.35 3608.83 1701.89 3601.08 1692.76 3559.58 1730.14 3563.33 1734.26 3528.94 1763.77 3572.83 1814.76"/><path class="cls-7" d="M3684.83,1398.68,3551.49,1512,3710,1696.85l131.56-116.5Zm-.67,215-19-22-4,1.33-58-66,38.33-33.33-5.67-7.33,18-12.67,84.67,93.67Z"/><polygon class="cls-6" points="3659.45 1533.51 3686.7 1510.39 3704.58 1530.76 3677.95 1552.64 3659.45 1533.51"/><polygon class="cls-2" points="3663.08 1642.01 3635.83 1668.51 3521.33 1538.26 3551.49 1512.01 3663.08 1642.01"/><polygon class="cls-2" points="3541.95 1561.72 3521.33 1577.76 3502.08 1557.51 3521.33 1538.26 3541.95 1561.72"/><polygon class="cls-2" points="3502.08 1557.51 3438.33 1612.01 3475.58 1657.76 3486.58 1649.26 3478.08 1638.51 3532.33 1592.76 3502.08 1557.51"/><polygon class="cls-2" points="3551.49 1725.51 3520.19 1753.6 3468.83 1698.26 3502.83 1668.51 3551.49 1725.51"/><polygon class="cls-2" points="3502.83 1668.51 3490.58 1654.76 3473.08 1670.76 3443.83 1635.51 3426.08 1650.35 3468.83 1698.26 3502.83 1668.51"/><polygon class="cls-2" points="3518.83 1752.01 3496.33 1771.01 3485.33 1756.51 3478.33 1760.26 3457.58 1736.01 3454.58 1738.26 3429.83 1710.68 3434.58 1706.18 3419.83 1689.85 3306.71 1787.04 3278.83 1754.01 3412.58 1635.51 3518.83 1752.01"/><polygon class="cls-2" points="3405.93 1641.4 3385.33 1618.01 3392.83 1611.26 3353.33 1567.01 3346.33 1573.51 3322.33 1545.01 3283.08 1583.76 3364.82 1677.82 3405.93 1641.4"/><polygon class="cls-7" points="3140.58 1874.51 3171.91 1849.7 3152.83 1826.35 3312.83 1691.35 3260.83 1631.35 3123.16 1748.35 3110.16 1734.68 3058.83 1780.01 3140.58 1874.51"/><polygon class="cls-2" points="3058.83 1780.01 2979.33 1684.68 3055.49 1616.35 3069.16 1633.35 3044.49 1656.01 3098.16 1718.35 3122.83 1698.18 3134.16 1710.68 3058.83 1780.01"/><polygon class="cls-2" points="3111.83 1685.01 3222.83 1588.68 3246.16 1614.35 3134.16 1710.68 3111.83 1685.01"/><polygon class="cls-7" points="3246.16 1614.35 3330.83 1536.92 3317.16 1523.68 3299.16 1541.35 3294.83 1535.84 3303.49 1526.01 3260.49 1479.01 3252.83 1483.68 3248.83 1477.01 3263.49 1464.68 3248.49 1446.01 3166.49 1520.01 3188.16 1542.68 3203.16 1530.18 3246.16 1579.35 3228.2 1594.59 3246.16 1614.35"/><polygon class="cls-2" points="3164.16 1516.35 3192.16 1547.35 3162.49 1575.68 3169.16 1583.35 3156.08 1594.95 3148.39 1587.51 3082.16 1647.18 3055.49 1616.35 3164.16 1516.35"/><polygon class="cls-2" points="3413.08 1633.76 3446.88 1604.7 3366.58 1510.01 3332.58 1538.26 3413.08 1633.76"/><polygon class="cls-2" points="3366.58 1510.01 3380.08 1498.26 3399.33 1521.26 3385.4 1532.2 3366.58 1510.01"/><polygon class="cls-2" points="3439.83 1570.51 3480.33 1536.76 3467.08 1523.51 3479.08 1512.01 3492.08 1526.76 3599.58 1434.51 3617.08 1455.01 3458.55 1594.73 3439.83 1570.51"/><polygon class="cls-2" points="3617.08 1455.01 3536.83 1358.26 3600.33 1302.76 3684.83 1398.68 3617.08 1455.01"/><polygon class="cls-2" points="3499.33 1392.51 3489.58 1398.68 3445.58 1436.51 3457.58 1450.51 3509.83 1405.76 3499.33 1392.51"/><polygon class="cls-2" points="3489.58 1398.68 3475.83 1384.51 3433.83 1421.51 3445.58 1436.51 3489.58 1398.68"/><polygon class="cls-2" points="3433.83 1421.51 3419.83 1434.51 3349.08 1356.01 3320.33 1382.51 3404.08 1473.76 3445.58 1436.51 3433.83 1421.51"/><polygon class="cls-2" points="3394.15 1462.94 3380.33 1477.51 3374.58 1470.23 3349.83 1493.26 3356.08 1500.01 3349.83 1507.26 3358.11 1517.05 3404.08 1473.76 3394.15 1462.94"/><polygon class="cls-2" points="3341.95 1406.07 3330.16 1417.35 3315.83 1400.35 3295.66 1419.68 3286.66 1410.01 3320.33 1382.51 3341.95 1406.07"/><polygon class="cls-2" points="3536.83 1358.26 3453.49 1263.01 3519.16 1204.01 3599.49 1301.35 3536.83 1358.26"/><polygon class="cls-2" points="3483.97 1297.85 3396.33 1379.01 3364.08 1343.76 3453.49 1263.01 3483.97 1297.85"/><path class="cls-2" d="M3519.16,1204l-89.58-104-132.75,125.25,30.75,35.5,62.5-53.75-18.75-24.5,16.75-14s6.5,20.5,32,44.25l5.25-4.5s34.74,43,38.62,45.36Z"/><polygon class="cls-2" points="3445.97 1233.39 3428.33 1250.51 3422.58 1243.51 3351.33 1311.01 3373.9 1334.89 3463.95 1253.62 3445.97 1233.39"/><polygon class="cls-7" points="2447.49 797.68 2319.58 908.76 2321.58 927.26 2467.33 1094.85 2513.33 1057.68 2600.33 979.01 2551.49 919.68 2524.49 944.01 2544.16 967.85 2481.33 1021.68 2412.16 941.35 2475.83 887.35 2493.83 907.68 2521.49 884.18 2447.49 797.68"/><polygon class="cls-7" points="2491.85 849.53 2632.83 733.01 2584.83 676.01 2447.49 797.68 2491.85 849.53"/><polygon class="cls-2" points="2493.83 907.68 2524.49 944.01 2551.49 919.68 2521.49 884.18 2493.83 907.68"/><polygon class="cls-2" points="2497.49 856.12 2523.83 835.76 2547.33 863.51 2521.49 884.18 2497.49 856.12"/><polygon class="cls-2" points="2529.29 842.22 2548.58 826.01 2582.33 866.01 2565.58 879.26 2571.08 887.01 2580.08 879.26 2607.08 910.01 2596.08 922.26 2582.33 907.76 2558.32 927.98 2521.49 884.18 2547.33 863.51 2529.29 842.22"/><polygon class="cls-2" points="2558.32 927.98 2582.33 907.76 2625.83 955.01 2600.33 979.01 2558.32 927.98"/><polygon class="cls-2" points="2602.93 930.14 2625.26 911.1 2646.08 935.51 2625.83 955.01 2602.93 930.14"/><polygon class="cls-2" points="2647.33 936.39 2622.95 907.76 2679.16 857.51 2703.99 885.01 2647.33 936.39"/><polygon class="cls-2" points="2467.33 1094.85 2508.33 1141.01 2551.58 1105.26 2513.33 1057.68 2467.33 1094.85"/><polygon class="cls-2" points="2530.17 1078.63 2542.08 1071.01 2555.83 1089.76 2564.58 1080.39 2568.58 1085.51 2584.33 1071.01 2581.58 1067.76 2576.58 1069.01 2567.58 1059.51 2557.25 1069.26 2532.07 1040.73 2513.33 1057.68 2530.17 1078.63"/><path class="cls-2" d="M2557.25,1069.26l41.08-35.75,5,5.25,20-17-1.83-4.17,10.38-10.42-2.21-2.46S2669,968.05,2674.57,965a.42.42,0,0,0,.09-.67L2646.08,937l-114,103.72Z"/><polygon class="cls-2" points="2705.16 886.51 2647.33 936.39 2669.13 959.07 2726.16 909.35 2705.16 886.51"/><polygon class="cls-2" points="2584.83 676.01 2730.83 551.68 2779.49 613.85 2720.83 666.35 2724.16 676.01 2678.58 712.14 2676.2 710.14 2641.2 740.26 2584.83 676.01"/><polygon class="cls-2" points="2633.58 733.51 2607.95 754.51 2606.33 773.89 2643.33 814.01 2657.08 804.51 2671.58 819.76 2660.33 830.26 2675.83 848.01 2685.58 837.26 2720.83 872.51 2745.33 853.76 2633.58 733.51"/><polygon class="cls-2" points="2665.65 719.22 2639.85 740.26 2700.15 805.14 2723.58 785.51 2665.65 719.22"/><polygon class="cls-2" points="2705.7 811.12 2721.83 798.26 2733.83 811.12 2757.58 790.51 2754.83 786.51 2777.33 762.77 2783.08 769.76 2821.51 732.51 2849.33 759.51 2745.33 853.76 2705.7 811.12"/><polygon class="cls-2" points="2727.62 867.32 2812.08 965.51 2831.33 946.01 2747.15 852.11 2727.62 867.32"/><polygon class="cls-2" points="2745.33 853.76 2770.08 884.76 2804.93 853.76 2800.08 847.26 2820.33 831.01 2862.33 876.01 2838.83 897.51 2833.83 892.76 2803.14 921.51 2827.36 950.03 2910.58 876.26 2826.24 780.44 2745.33 853.76"/><polygon class="cls-2" points="2776.14 923.72 2757.66 940.01 2760.99 947.18 2741.16 963.51 2772.83 1001.01 2812.08 965.51 2776.14 923.72"/><polygon class="cls-2" points="2741.16 963.51 2729.49 975.35 2726.16 969.43 2697.16 994.68 2700.49 998.68 2686.74 1012.35 2681.49 1006.35 2670.83 1017.01 2677.16 1023.35 2597.49 1089.76 2600.33 1094.85 2532.07 1150.01 2564.16 1189.35 2772.83 1001.01 2741.16 963.51"/><polygon class="cls-2" points="2739.47 1031.12 2758.58 1053.39 2775.95 1038.76 2757.33 1015 2739.47 1031.12"/><polygon class="cls-7" points="2671.59 1092.39 2692.95 1116.14 2640.33 1162.01 2704.83 1234.14 2637.49 1291.51 2555.49 1197.68 2671.59 1092.39"/><polygon class="cls-2" points="2730.83 551.68 2799.08 491.76 2840.83 540.01 2797.83 580.51 2804.93 589.01 2779.49 613.85 2730.83 551.68"/><polygon class="cls-2" points="2799.08 491.76 2860.58 439.76 3013.58 618.01 2962.33 660.51 2846.47 520.51 2834.07 532.2 2799.08 491.76"/><polygon class="cls-2" points="2804.93 589.01 2812.58 594.26 2821.51 589.01 2830.08 598.51 2795.08 630.01 2779.49 613.85 2804.93 589.01"/><polygon class="cls-2" points="2755.6 635.23 2858.08 752.51 2879.33 733.51 2845.33 695.51 2870.08 674.76 2864.58 667.51 2873.08 660.51 2821.51 606.22 2795.08 630.01 2779.49 613.85 2755.6 635.23"/><polygon class="cls-2" points="2930.72 622.32 2906.33 643.35 2913.16 656.01 2879.33 681.68 2870.08 674.76 2845.33 695.51 2879.33 733.51 2962.33 660.51 2930.72 622.32"/><path class="cls-2" d="M3013.58,618,2826.24,780.44l84.34,95.82L3093.16,713ZM2875.49,780.44l105-92.09,43,48-107.67,91.33Z"/><polygon class="cls-2" points="3093.16 713.01 3176.83 807.26 2961.49 999.01 2931.83 962.37 3094.49 824.01 3065.16 785.68 3028.16 821.01 3034.49 830.68 3017.49 847.01 3008.49 838.01 2904.16 927.35 2881.2 902.3 3093.16 713.01"/><polygon class="cls-2" points="2899.98 922.79 2846.47 970.01 2827.36 950.03 2881.2 902.3 2899.98 922.79"/><polygon class="cls-2" points="2846.47 970.01 2840.49 975.01 2881.2 1019.68 2863.67 1034.19 2856.83 1024.35 2854.16 1027.01 2844.49 1015 2837.49 1020.35 2803.14 973.59 2827.36 950.03 2846.47 970.01"/><polygon class="cls-2" points="2938.01 970.01 2905.83 999.01 2896.49 987.68 2889.83 994.01 2878.49 979.35 2860.02 996.44 2907.16 1046.01 2961.49 999.01 2938.01 970.01"/><polygon class="cls-2" points="2864.95 1034.19 2870.2 1039.76 2860.7 1048.76 2881.2 1072.26 2907.16 1046.01 2882.38 1019.96 2864.95 1034.19"/><polygon class="cls-2" points="2840.16 1054.51 2823.83 1066.35 2815.99 1057.85 2796.99 1077.68 2832.66 1117.35 2868.49 1083.01 2840.16 1054.51"/><polygon class="cls-2" points="2904.42 1048.78 2931.66 1079.85 2922.66 1087.18 2918.04 1078.85 2912.16 1085.01 2901.49 1074.51 2892.33 1082.01 2970.33 1171.35 2920.83 1216.18 2832.66 1117.35 2904.42 1048.78"/><polygon class="cls-2" points="2832.66 1117.35 2785.49 1157.51 2755.99 1124.18 2790.16 1094.35 2795.66 1101.51 2808.19 1090.13 2832.66 1117.35"/><polygon class="cls-2" points="2740.83 1163.01 2685.83 1212.89 2704.83 1234.14 2764.49 1176.35 2758.49 1166.35 2751.16 1173.35 2740.83 1163.01"/><polygon class="cls-2" points="2821.51 1126.84 2704.83 1234.14 2731.16 1259.68 2848.16 1155.35 2821.51 1126.84"/><polygon class="cls-2" points="2704.83 1234.14 2637.49 1291.51 2725.16 1390.35 2778.49 1344.22 2757.16 1320.35 2743.49 1332.01 2696.83 1278.01 2725.16 1253.86 2704.83 1234.14"/><polygon class="cls-2" points="2879.49 1195.68 2751.83 1314.01 2778.49 1344.22 2908.49 1228.35 2879.49 1195.68"/><path class="cls-2" d="M2980.58,1165l-253.42,227,82,93.67L2955.33,1358l28.25-28,84-73Zm-119.42,226.67,17,19-11.33,10-68.67-73.33,15-11.67,17,16.67,151-138.67,33.33,35.33Z"/><polygon class="cls-2" points="2886.55 1418.08 2899.49 1432.68 2950.16 1390.35 2937.05 1373.98 2886.55 1418.08"/><polygon class="cls-2" points="2957.59 1355.77 2977.83 1379.68 3004.83 1355.77 2983.58 1330.01 2957.59 1355.77"/><polygon class="cls-2" points="3005.68 1310.8 3033.16 1341.51 3075.49 1303.85 3108.83 1341.51 3059.49 1385.01 3055.83 1379.68 2957.59 1462.68 2971.49 1482.35 2932.83 1516.35 2864.49 1437.35 2809.16 1485.68 2895.16 1587.01 3164.16 1347.01 3076.49 1248.68 3005.68 1310.8"/><polygon class="cls-2" points="2941.99 1015.88 2966.33 1043.01 2989.08 1022.51 2966.44 994.61 2941.99 1015.88"/><polygon class="cls-2" points="3057.27 913.73 3092.08 949.51 3024.08 1013.26 3012.83 1000.51 3002.08 1010.26 3011.58 1021.51 2999.83 1033.76 2966.44 994.61 3057.27 913.73"/><polygon class="cls-2" points="3082.83 940 3090.33 934.26 3098.58 944.01 3109.08 936.01 3076.82 896.32 3057.27 913.73 3082.83 940"/><polygon class="cls-2" points="3100.86 925.89 3144.58 888.01 3205.83 963.01 3268.83 911.51 3176.83 807.26 3076.82 896.32 3100.86 925.89"/><polygon class="cls-2" points="2998.77 1093.83 2958.99 1044.35 2947.99 1053.01 2957.83 1067.01 2938.99 1085.01 2974.3 1126.66 3002.83 1100.51 2998.77 1093.83"/><polygon class="cls-2" points="3006.46 1192.38 3022.58 1179.51 2996.91 1150.07 2980.58 1165.01 3006.46 1192.38"/><polygon class="cls-2" points="3205.83 963.01 2983.58 1162.01 2968.08 1143.01 2975.58 1136.51 2970.33 1130.26 2986.58 1115.51 2981.08 1109.26 3012.33 1082.01 3016.58 1086.51 3185.68 938.34 3205.83 963.01"/><polygon class="cls-7" points="3208.4 1482.2 3175.33 1446.01 3035.83 1574.01 3066.01 1606.67 3208.4 1482.2"/><polygon class="cls-2" points="3045.69 1584.68 3013.83 1616.35 2965.33 1559.51 2970.33 1557.01 2975.83 1563.01 3136.83 1423.51 3111.83 1393.7 2895.16 1587.01 2979.33 1684.68 3066.01 1606.67 3045.69 1584.68"/><polygon class="cls-2" points="3221.64 1470.25 3136.83 1371.4 3164.16 1347.01 3249.99 1443.35 3221.64 1470.25"/><polygon class="cls-2" points="3249.99 1443.35 3300.7 1398.55 3278.33 1372.76 3271.58 1379.01 3161.58 1251.76 3114.97 1291.83 3249.99 1443.35"/><polygon class="cls-2" points="3328.96 1374.55 3244.16 1274.68 3275.49 1245.35 3303.83 1279.35 3310.16 1272.35 3339.16 1305.35 3336.16 1309.95 3348.83 1327.35 3357.73 1317.79 3373.9 1334.89 3328.96 1374.55"/><polygon class="cls-2" points="3244.16 1274.68 3226.83 1256.35 3241.49 1240.01 3246.2 1242.51 3266.95 1221.51 3259.7 1213.76 3279.95 1193.39 3303.26 1219.19 3244.16 1274.68"/><polyline class="cls-2" points="3076.49 1248.68 3350.83 1008.01 3395.83 1063.01 3345.83 1105.01 3313.83 1068.68 3303.26 1078.35 3320.83 1100.01 3106.15 1281.95 3075.16 1248.68"/><path class="cls-7" d="M3268.83,911.51l-271.92,238.56,15.43,17.7,11-8.59,18,20.17-4.67,5.17,13.5,18.17,6-8,16.67,21.5-7.5,7.33,17.45,19.66L3350.83,1008Zm-13.17,130L3137,1145h0a16.1,16.1,0,0,0-9.59,17.08l.42,3-45-50a12.23,12.23,0,0,1,12.64-3.62l3.2.95,119.5-107.67c7.5-6,4.83-15.67,4.83-15.67l42.17,54.67Z"/><polygon class="cls-2" points="3429.58 1100.01 3395.83 1063.01 3345.83 1105.01 3380.64 1146.18 3429.58 1100.01"/><polygon class="cls-2" points="3353.3 1113.85 3318.83 1146.18 3322.49 1150.35 3313.16 1160.01 3309.03 1156.35 3296.83 1164.35 3300.7 1169.68 3293.16 1179.01 3288.49 1174.01 3275.49 1187.68 3303.26 1219.19 3380.64 1146.18 3353.3 1113.85"/><polygon class="cls-2" points="3232.25 241.76 3195.33 274.51 3245.41 329.68 3280.33 296.51 3232.25 241.76"/><polygon class="cls-7" points="3775.33 141.01 3724.83 185.51 3841.56 321.51 3841.56 217.01 3775.33 141.01"/><path class="cls-2" d="M3712.83,211.51l-24.67,20.67-6.74-3.55c-6.7-2-14.38,5-13,11.88l1.2,5.83-19.33,16.5-8.6-.61a5.32,5.32,0,0,0-5.43,7l1.53,4.64L3607,299l-2.9-1.76a8.41,8.41,0,0,0-10.27,1.2l-2.22,2.19a10.41,10.41,0,0,0-2.34,11.32l.23.56-22,19.33h-7.92a4.24,4.24,0,0,0-4.23,4.74,6.47,6.47,0,0,0,1.15,3.26l-29,25.33-.86-.72a9,9,0,0,0-12.29.7l-5.69,6,41.83,49.5,197.17-165.17Z"/><polygon class="cls-7" points="3506.99 369.35 3518.45 382.76 3506.33 393.01 3534.33 426.18 3546.76 416.26 3556.16 428.51 3366.2 586.89 3379.95 600.76 3367.83 612.76 3305.58 541.51 3506.99 369.35"/><polygon class="cls-2" points="3305.58 541.51 3241.49 601.35 3302.16 671.68 3367.83 612.76 3305.58 541.51"/><polygon class="cls-2" points="3516.1 461.91 3541.49 492.35 3574.16 463.51 3568.16 456.18 3576.99 449.51 3556.16 428.51 3516.1 461.91"/><polygon class="cls-2" points="3617.66 414.51 3576.99 449.51 3622.99 504.01 3662.83 470.18 3617.66 414.51"/><polygon class="cls-2" points="3841.56 322.85 3792.83 364.35 3804.99 378.68 3841.56 347.35 3841.56 322.85"/><polygon class="cls-7" points="3804.99 378.68 3831.66 411.51 3841.56 402.68 3841.56 347.35 3804.99 378.68"/><polygon class="cls-2" points="3781.16 350.76 3682.33 434.68 3731.74 494.35 3831.66 411.51 3781.16 350.76"/><polygon class="cls-2" points="3662.83 470.18 3615.33 510.76 3622.58 518.01 3631.08 513.01 3724.83 626.26 3739.58 614.26 3750.83 628.51 3841.56 552.51 3841.56 511.26 3754.83 582.01 3662.83 470.18"/><polygon class="cls-2" points="3795.19 591.35 3814.33 614.76 3841.56 591.35 3841.56 552.51 3795.19 591.35"/><polygon class="cls-2" points="3615.33 510.76 3587.33 533.51 3565.33 508.26 3586.83 491.05 3590.33 496.76 3597.58 490.39 3615.33 510.76"/><polygon class="cls-2" points="3580.83 539.01 3565.33 520.01 3553.95 530.64 3546.83 522.26 3535.83 534.14 3537.2 537.26 3503.45 566.14 3523.58 588.89 3580.83 539.01"/><polygon class="cls-2" points="3511.38 575.1 3430.87 647.01 3435.83 651.14 3417.08 668.01 3422.7 674.14 3523.58 588.89 3511.38 575.1"/><polygon class="cls-2" points="3422.7 674.14 3413.58 684.01 3421.33 690.01 3444.08 671.68 3461.33 693.51 3641.08 539.51 3615.33 510.76 3422.7 674.14"/><polygon class="cls-2" points="3375.33 637.76 3316.08 688.01 3352.33 733.51 3413.58 684.01 3375.33 637.76"/><polygon class="cls-2" points="3413.58 684.01 3352.33 733.51 3426.58 817.76 3454.08 793.76 3442.08 781.01 3468.83 756.76 3446.08 728.51 3439.08 736.26 3408.58 703.51 3421.33 690.01 3413.58 684.01"/><polygon class="cls-2" points="3637.16 561.68 3565.33 622.35 3647.83 717.35 3717.49 658.35 3637.16 561.68"/><polygon class="cls-2" points="3735.49 641.35 3689.19 682.32 3807.83 815.35 3841.56 787.68 3841.56 765.68 3735.49 641.35"/><polygon class="cls-2" points="3788.83 647.35 3761.09 671.35 3827.82 749.58 3841.56 735.35 3841.56 710.68 3834.16 717.35 3825.83 708.35 3841.56 698.46 3841.56 683.01 3834.49 673.68 3822.16 681.68 3788.83 647.35"/><polygon class="cls-7" points="3474.33 865.01 3635.83 726.51 3593.58 676.76 3431.58 816.26 3474.33 865.01"/><polygon class="cls-2" points="3477.83 862.01 3488.2 873.14 3524.2 842.26 3513.95 831.03 3477.83 862.01"/><polygon class="cls-2" points="3522.52 823.68 3532.58 835.14 3558.7 811.76 3549.08 800.91 3522.52 823.68"/><polygon class="cls-2" points="3588.2 767.36 3709.83 901.51 3765.37 852.08 3647.83 717.35 3588.2 767.36"/><polygon class="cls-2" points="3841.56 787.68 3725.46 887.6 3745.08 910.01 3841.56 829.26 3841.56 787.68"/><polygon class="cls-2" points="3841.56 851.76 3800.33 887.76 3841.56 937.51 3841.56 851.76"/><polygon class="cls-2" points="3550.83 859.35 3498.16 904.35 3558.7 977.01 3610.16 929.68 3550.83 859.35"/><polygon class="cls-7" points="3709.83 901.51 3588.2 1011.01 3737.16 1184.68 3799.83 1132.68 3730.49 1055.01 3721.16 1061.35 3684.49 1020.68 3757.83 955.35 3709.83 901.51"/><polygon class="cls-2" points="3841.56 999.26 3833.08 989.51 3770.08 1043.1 3786.33 1062.26 3771.33 1077.26 3799.83 1111.76 3789.6 1121.22 3799.83 1132.68 3838.83 1098.76 3829.83 1087.26 3841.56 1077.76 3841.56 999.26"/><polygon class="cls-2" points="3841.56 1095.51 3812.1 1122 3829.33 1143.01 3826.83 1145.26 3835.58 1153.76 3841.56 1148.76 3841.56 1095.51"/><polygon class="cls-2" points="3812.1 1122 3737.16 1184.68 3818.83 1279.26 3841.56 1260.01 3841.56 1184.68 3815.33 1153.76 3829.33 1143.01 3812.1 1122"/><polygon class="cls-7" points="3841.56 1260.01 3820.08 1279.26 3841.56 1307.76 3841.56 1260.01"/><polygon class="cls-2" points="1725.29 655.72 1884.27 591.28 1875.93 572.12 1806.32 598.45 1797.93 581.28 1774.27 588.78 1776.27 597.12 1757.6 604.78 1761.27 615.78 1719.3 635.64 1725.29 655.72"/><polygon class="cls-22" points="1875.16 571.35 1904.83 560.68 1910.49 577.8 1883.49 590.51 1875.16 571.35"/><polygon class="cls-2" points="1845.27 609.65 1932.6 572.12 1944.6 600.78 1937.1 604.12 1942.27 620.78 1926.27 629.12 1917.93 613.92 1894.93 622.78 1900.93 640.78 1865.27 655.72 1845.27 609.65"/><polygon class="cls-2" points="1865.6 657.78 1844.1 608.78 1697.77 668.8 1775.6 698.78 1865.6 657.78"/><polygon class="cls-2" points="1775.6 698.78 1795.43 778.78 1816.1 774.28 1823.77 795.12 1732.6 826.12 1696.16 669.57 1697.77 668.8 1775.6 698.78"/><polygon class="cls-2" points="1809.93 747.46 1823.77 795.12 2001.6 733.28 1983.6 688.78 1809.93 747.46"/><polygon class="cls-2" points="1731.83 825.35 1742.16 874.68 1809.16 852.35 1790.81 805.29 1731.83 825.35"/><polyline class="cls-2" points="1800.39 829.85 2018.96 752.14 2009.78 731.27 1792.49 805.29"/><polygon class="cls-2" points="1904.16 885.35 1880.49 896.01 1894.83 926.35 1919.49 915.01 1904.16 885.35"/><polygon class="cls-2" points="1896.83 854.01 1907.33 885.35 1837.16 915.35 1824.83 877.35 1896.83 854.01"/><polygon class="cls-2" points="1924.47 846.95 1915.16 820.01 1743.49 874.68 1749.16 900.51 1924.47 846.95"/><polygon class="cls-2" points="1749.93 901.28 1759.96 944.28 1837.93 916.12 1825.6 878.12 1749.93 901.28"/><polygon class="cls-2" points="2045.49 2.01 2095.49 58.68 2124.33 36.51 2092.33 2.51 2045.49 2.01"/><polygon class="cls-2" points="2106.85 63.37 2057.49 105.01 2065.49 116.01 2048.61 131.71 2061.5 162.54 2137.77 98.73 2106.85 63.37"/><polygon class="cls-2" points="2099.33 440.01 2174.33 374.51 2099.33 286.51 2051.33 327.01 2099.33 440.01"/><polygon class="cls-2" points="2051.33 327.01 2003.33 213.66 2163.33 81.51 2237.87 168.26 2173.33 224.51 2127.83 168.26 2090.83 198.51 2124.33 266.51 2051.33 327.01"/><polygon class="cls-2" points="2177.16 2.51 2299.83 145.01 2327.33 122.01 2348.79 145.01 2271.65 207.1 2124.33 36.51 2168.53 2.51 2177.16 2.51"/><polygon class="cls-2" points="2346.37 142.42 2426.83 71.68 2398.16 41.68 2317.49 110.34 2346.37 142.42"/><polygon class="cls-2" points="2374.83 2.51 2430.49 66.68 2492.16 16.01 2482.16 2.51 2374.83 2.51"/><polygon class="cls-2" points="2313.33 176.34 2348.79 218.34 2475.49 104.81 2505.33 136.34 2520.16 123.68 2532.33 139 2570.33 106.51 2492.16 16.01 2313.33 176.34"/></g></g></svg>